<?xml version="1.0" encoding="UTF-8" standalone="no"?>
<svg
   width="901.84131"
   zoomAndPan="magnify"
   viewBox="0 0 676.38098 161.99999"
   height="215.99998"
   preserveAspectRatio="xMidYMid"
   version="1.0"
   id="svg231"
   xmlns="http://www.w3.org/2000/svg"
   xmlns:svg="http://www.w3.org/2000/svg">
  <defs
     id="defs147">
    <clipPath
       id="f8d27f500c">
      <path
         d="m 383.78125,330.14453 h 162 v 162 h -162 z m 0,0"
         clip-rule="nonzero"
         id="path1" />
    </clipPath>
    <clipPath
       id="47f3f7f68e">
      <path
         d="m 445,388 h 39 v 72 h -39 z m 0,0"
         clip-rule="nonzero"
         id="path2" />
    </clipPath>
    <clipPath
       id="283f61a8b2">
      <path
         d="m 445.71875,388.04687 c 0,0 17.24609,7.92579 38.02344,0 v 54.83985 c 0,0 -0.85547,16.28125 -18.74219,16.28125 -17.88672,0 -19.17578,-16.28125 -19.17578,-16.28125 z m 0,0"
         clip-rule="nonzero"
         id="path3" />
    </clipPath>
    <linearGradient
       x1="66.771004"
       gradientTransform="matrix(1.195863,0,0,1.195863,384.88138,326.67436)"
       y1="51.321171"
       x2="66.771004"
       gradientUnits="userSpaceOnUse"
       y2="110.79282"
       id="45ec4ea0b7">
      <stop
         stop-opacity="1"
         stop-color="rgb(100%, 26.269531%, 5.879211%)"
         offset="0"
         id="stop3" />
      <stop
         stop-opacity="1"
         stop-color="rgb(100%, 26.269531%, 5.879211%)"
         offset="0.125"
         id="stop4" />
      <stop
         stop-opacity="1"
         stop-color="rgb(100%, 26.269531%, 5.879211%)"
         offset="0.1875"
         id="stop5" />
      <stop
         stop-opacity="1"
         stop-color="rgb(100%, 26.269531%, 5.879211%)"
         offset="0.21875"
         id="stop6" />
      <stop
         stop-opacity="1"
         stop-color="rgb(100%, 26.400757%, 5.886841%)"
         offset="0.234375"
         id="stop7" />
      <stop
         stop-opacity="1"
         stop-color="rgb(100%, 27.137756%, 5.932617%)"
         offset="0.238281"
         id="stop8" />
      <stop
         stop-opacity="1"
         stop-color="rgb(100%, 27.74353%, 5.970764%)"
         offset="0.242187"
         id="stop9" />
      <stop
         stop-opacity="1"
         stop-color="rgb(100%, 28.349304%, 6.008911%)"
         offset="0.246094"
         id="stop10" />
      <stop
         stop-opacity="1"
         stop-color="rgb(100%, 28.955078%, 6.047058%)"
         offset="0.25"
         id="stop11" />
      <stop
         stop-opacity="1"
         stop-color="rgb(100%, 29.559326%, 6.085205%)"
         offset="0.253906"
         id="stop12" />
      <stop
         stop-opacity="1"
         stop-color="rgb(100%, 30.1651%, 6.123352%)"
         offset="0.257812"
         id="stop13" />
      <stop
         stop-opacity="1"
         stop-color="rgb(100%, 30.770874%, 6.161499%)"
         offset="0.261719"
         id="stop14" />
      <stop
         stop-opacity="1"
         stop-color="rgb(100%, 31.376648%, 6.199646%)"
         offset="0.265625"
         id="stop15" />
      <stop
         stop-opacity="1"
         stop-color="rgb(100%, 31.982422%, 6.236267%)"
         offset="0.269531"
         id="stop16" />
      <stop
         stop-opacity="1"
         stop-color="rgb(100%, 32.588196%, 6.274414%)"
         offset="0.273438"
         id="stop17" />
      <stop
         stop-opacity="1"
         stop-color="rgb(100%, 33.19397%, 6.312561%)"
         offset="0.277344"
         id="stop18" />
      <stop
         stop-opacity="1"
         stop-color="rgb(100%, 33.799744%, 6.350708%)"
         offset="0.28125"
         id="stop19" />
      <stop
         stop-opacity="1"
         stop-color="rgb(100%, 34.403992%, 6.388855%)"
         offset="0.285156"
         id="stop20" />
      <stop
         stop-opacity="1"
         stop-color="rgb(100%, 35.009766%, 6.427002%)"
         offset="0.289062"
         id="stop21" />
      <stop
         stop-opacity="1"
         stop-color="rgb(100%, 35.61554%, 6.463623%)"
         offset="0.292969"
         id="stop22" />
      <stop
         stop-opacity="1"
         stop-color="rgb(100%, 36.221313%, 6.50177%)"
         offset="0.296875"
         id="stop23" />
      <stop
         stop-opacity="1"
         stop-color="rgb(100%, 36.827087%, 6.539917%)"
         offset="0.300781"
         id="stop24" />
      <stop
         stop-opacity="1"
         stop-color="rgb(100%, 37.432861%, 6.578064%)"
         offset="0.304687"
         id="stop25" />
      <stop
         stop-opacity="1"
         stop-color="rgb(100%, 38.038635%, 6.616211%)"
         offset="0.308594"
         id="stop26" />
      <stop
         stop-opacity="1"
         stop-color="rgb(100%, 38.644409%, 6.654358%)"
         offset="0.3125"
         id="stop27" />
      <stop
         stop-opacity="1"
         stop-color="rgb(100%, 39.250183%, 6.690979%)"
         offset="0.316406"
         id="stop28" />
      <stop
         stop-opacity="1"
         stop-color="rgb(100%, 39.855957%, 6.729126%)"
         offset="0.320312"
         id="stop29" />
      <stop
         stop-opacity="1"
         stop-color="rgb(100%, 40.460205%, 6.767273%)"
         offset="0.324219"
         id="stop30" />
      <stop
         stop-opacity="1"
         stop-color="rgb(100%, 41.065979%, 6.80542%)"
         offset="0.328125"
         id="stop31" />
      <stop
         stop-opacity="1"
         stop-color="rgb(100%, 41.671753%, 6.843567%)"
         offset="0.332031"
         id="stop32" />
      <stop
         stop-opacity="1"
         stop-color="rgb(100%, 42.277527%, 6.881714%)"
         offset="0.335938"
         id="stop33" />
      <stop
         stop-opacity="1"
         stop-color="rgb(100%, 42.883301%, 6.918335%)"
         offset="0.339844"
         id="stop34" />
      <stop
         stop-opacity="1"
         stop-color="rgb(100%, 43.489075%, 6.956482%)"
         offset="0.34375"
         id="stop35" />
      <stop
         stop-opacity="1"
         stop-color="rgb(100%, 44.094849%, 6.994629%)"
         offset="0.347656"
         id="stop36" />
      <stop
         stop-opacity="1"
         stop-color="rgb(100%, 44.700623%, 7.032776%)"
         offset="0.351562"
         id="stop37" />
      <stop
         stop-opacity="1"
         stop-color="rgb(100%, 45.304871%, 7.070923%)"
         offset="0.355469"
         id="stop38" />
      <stop
         stop-opacity="1"
         stop-color="rgb(100%, 45.910645%, 7.10907%)"
         offset="0.359375"
         id="stop39" />
      <stop
         stop-opacity="1"
         stop-color="rgb(100%, 46.516418%, 7.147217%)"
         offset="0.363281"
         id="stop40" />
      <stop
         stop-opacity="1"
         stop-color="rgb(100%, 47.122192%, 7.185364%)"
         offset="0.367188"
         id="stop41" />
      <stop
         stop-opacity="1"
         stop-color="rgb(100%, 47.727966%, 7.221985%)"
         offset="0.371094"
         id="stop42" />
      <stop
         stop-opacity="1"
         stop-color="rgb(100%, 48.33374%, 7.260132%)"
         offset="0.375"
         id="stop43" />
      <stop
         stop-opacity="1"
         stop-color="rgb(100%, 48.939514%, 7.298279%)"
         offset="0.378906"
         id="stop44" />
      <stop
         stop-opacity="1"
         stop-color="rgb(100%, 49.545288%, 7.336426%)"
         offset="0.382812"
         id="stop45" />
      <stop
         stop-opacity="1"
         stop-color="rgb(100%, 50.149536%, 7.374573%)"
         offset="0.386719"
         id="stop46" />
      <stop
         stop-opacity="1"
         stop-color="rgb(100%, 50.75531%, 7.41272%)"
         offset="0.390625"
         id="stop47" />
      <stop
         stop-opacity="1"
         stop-color="rgb(100%, 51.361084%, 7.449341%)"
         offset="0.394531"
         id="stop48" />
      <stop
         stop-opacity="1"
         stop-color="rgb(100%, 51.966858%, 7.487488%)"
         offset="0.398438"
         id="stop49" />
      <stop
         stop-opacity="1"
         stop-color="rgb(100%, 52.572632%, 7.525635%)"
         offset="0.402344"
         id="stop50" />
      <stop
         stop-opacity="1"
         stop-color="rgb(100%, 53.178406%, 7.563782%)"
         offset="0.40625"
         id="stop51" />
      <stop
         stop-opacity="1"
         stop-color="rgb(100%, 53.78418%, 7.601929%)"
         offset="0.410156"
         id="stop52" />
      <stop
         stop-opacity="1"
         stop-color="rgb(100%, 54.389954%, 7.640076%)"
         offset="0.414062"
         id="stop53" />
      <stop
         stop-opacity="1"
         stop-color="rgb(100%, 54.994202%, 7.676697%)"
         offset="0.417969"
         id="stop54" />
      <stop
         stop-opacity="1"
         stop-color="rgb(100%, 55.599976%, 7.714844%)"
         offset="0.421875"
         id="stop55" />
      <stop
         stop-opacity="1"
         stop-color="rgb(100%, 56.20575%, 7.752991%)"
         offset="0.425781"
         id="stop56" />
      <stop
         stop-opacity="1"
         stop-color="rgb(100%, 56.811523%, 7.791138%)"
         offset="0.429687"
         id="stop57" />
      <stop
         stop-opacity="1"
         stop-color="rgb(100%, 57.417297%, 7.829285%)"
         offset="0.433594"
         id="stop58" />
      <stop
         stop-opacity="1"
         stop-color="rgb(100%, 58.023071%, 7.867432%)"
         offset="0.4375"
         id="stop59" />
      <stop
         stop-opacity="1"
         stop-color="rgb(100%, 58.628845%, 7.904053%)"
         offset="0.441406"
         id="stop60" />
      <stop
         stop-opacity="1"
         stop-color="rgb(100%, 59.234619%, 7.9422%)"
         offset="0.445312"
         id="stop61" />
      <stop
         stop-opacity="1"
         stop-color="rgb(100%, 59.840393%, 7.980347%)"
         offset="0.449219"
         id="stop62" />
      <stop
         stop-opacity="1"
         stop-color="rgb(100%, 60.446167%, 8.018494%)"
         offset="0.453125"
         id="stop63" />
      <stop
         stop-opacity="1"
         stop-color="rgb(100%, 61.050415%, 8.056641%)"
         offset="0.457031"
         id="stop64" />
      <stop
         stop-opacity="1"
         stop-color="rgb(100%, 61.656189%, 8.094788%)"
         offset="0.460938"
         id="stop65" />
      <stop
         stop-opacity="1"
         stop-color="rgb(100%, 62.261963%, 8.131409%)"
         offset="0.464844"
         id="stop66" />
      <stop
         stop-opacity="1"
         stop-color="rgb(100%, 62.867737%, 8.169556%)"
         offset="0.46875"
         id="stop67" />
      <stop
         stop-opacity="1"
         stop-color="rgb(100%, 63.473511%, 8.207703%)"
         offset="0.472656"
         id="stop68" />
      <stop
         stop-opacity="1"
         stop-color="rgb(100%, 64.079285%, 8.24585%)"
         offset="0.476562"
         id="stop69" />
      <stop
         stop-opacity="1"
         stop-color="rgb(100%, 64.685059%, 8.283997%)"
         offset="0.480469"
         id="stop70" />
      <stop
         stop-opacity="1"
         stop-color="rgb(100%, 65.290833%, 8.322144%)"
         offset="0.484375"
         id="stop71" />
      <stop
         stop-opacity="1"
         stop-color="rgb(100%, 65.895081%, 8.360291%)"
         offset="0.488281"
         id="stop72" />
      <stop
         stop-opacity="1"
         stop-color="rgb(100%, 66.500854%, 8.398438%)"
         offset="0.492187"
         id="stop73" />
      <stop
         stop-opacity="1"
         stop-color="rgb(100%, 67.106628%, 8.435059%)"
         offset="0.496094"
         id="stop74" />
      <stop
         stop-opacity="1"
         stop-color="rgb(100%, 67.712402%, 8.473206%)"
         offset="0.5"
         id="stop75" />
      <stop
         stop-opacity="1"
         stop-color="rgb(100%, 68.318176%, 8.511353%)"
         offset="0.503906"
         id="stop76" />
      <stop
         stop-opacity="1"
         stop-color="rgb(100%, 68.92395%, 8.5495%)"
         offset="0.507812"
         id="stop77" />
      <stop
         stop-opacity="1"
         stop-color="rgb(100%, 69.529724%, 8.587646%)"
         offset="0.511719"
         id="stop78" />
      <stop
         stop-opacity="1"
         stop-color="rgb(100%, 70.135498%, 8.625793%)"
         offset="0.515625"
         id="stop79" />
      <stop
         stop-opacity="1"
         stop-color="rgb(100%, 70.437622%, 8.673096%)"
         offset="0.519531"
         id="stop80" />
      <stop
         stop-opacity="1"
         stop-color="rgb(100%, 70.741272%, 8.721924%)"
         offset="0.523438"
         id="stop81" />
      <stop
         stop-opacity="1"
         stop-color="rgb(100%, 71.028137%, 8.769226%)"
         offset="0.527344"
         id="stop82" />
      <stop
         stop-opacity="1"
         stop-color="rgb(100%, 71.315002%, 8.818054%)"
         offset="0.53125"
         id="stop83" />
      <stop
         stop-opacity="1"
         stop-color="rgb(100%, 71.600342%, 8.866882%)"
         offset="0.535156"
         id="stop84" />
      <stop
         stop-opacity="1"
         stop-color="rgb(100%, 71.887207%, 8.91571%)"
         offset="0.539062"
         id="stop85" />
      <stop
         stop-opacity="1"
         stop-color="rgb(100%, 72.174072%, 8.964539%)"
         offset="0.542969"
         id="stop86" />
      <stop
         stop-opacity="1"
         stop-color="rgb(100%, 72.460938%, 9.013367%)"
         offset="0.546875"
         id="stop87" />
      <stop
         stop-opacity="1"
         stop-color="rgb(100%, 72.746277%, 9.062195%)"
         offset="0.550781"
         id="stop88" />
      <stop
         stop-opacity="1"
         stop-color="rgb(100%, 73.033142%, 9.111023%)"
         offset="0.554688"
         id="stop89" />
      <stop
         stop-opacity="1"
         stop-color="rgb(100%, 73.320007%, 9.159851%)"
         offset="0.558594"
         id="stop90" />
      <stop
         stop-opacity="1"
         stop-color="rgb(100%, 73.606873%, 9.208679%)"
         offset="0.5625"
         id="stop91" />
      <stop
         stop-opacity="1"
         stop-color="rgb(100%, 73.893738%, 9.255981%)"
         offset="0.566406"
         id="stop92" />
      <stop
         stop-opacity="1"
         stop-color="rgb(100%, 74.180603%, 9.30481%)"
         offset="0.570312"
         id="stop93" />
      <stop
         stop-opacity="1"
         stop-color="rgb(100%, 74.465942%, 9.353638%)"
         offset="0.574219"
         id="stop94" />
      <stop
         stop-opacity="1"
         stop-color="rgb(100%, 74.752808%, 9.402466%)"
         offset="0.578125"
         id="stop95" />
      <stop
         stop-opacity="1"
         stop-color="rgb(100%, 75.039673%, 9.451294%)"
         offset="0.582031"
         id="stop96" />
      <stop
         stop-opacity="1"
         stop-color="rgb(100%, 75.326538%, 9.500122%)"
         offset="0.585938"
         id="stop97" />
      <stop
         stop-opacity="1"
         stop-color="rgb(100%, 75.611877%, 9.54895%)"
         offset="0.589844"
         id="stop98" />
      <stop
         stop-opacity="1"
         stop-color="rgb(100%, 75.898743%, 9.597778%)"
         offset="0.59375"
         id="stop99" />
      <stop
         stop-opacity="1"
         stop-color="rgb(100%, 76.185608%, 9.645081%)"
         offset="0.597656"
         id="stop100" />
      <stop
         stop-opacity="1"
         stop-color="rgb(100%, 76.472473%, 9.693909%)"
         offset="0.601562"
         id="stop101" />
      <stop
         stop-opacity="1"
         stop-color="rgb(100%, 76.757812%, 9.742737%)"
         offset="0.605469"
         id="stop102" />
      <stop
         stop-opacity="1"
         stop-color="rgb(100%, 77.044678%, 9.791565%)"
         offset="0.609375"
         id="stop103" />
      <stop
         stop-opacity="1"
         stop-color="rgb(100%, 77.331543%, 9.840393%)"
         offset="0.613281"
         id="stop104" />
      <stop
         stop-opacity="1"
         stop-color="rgb(100%, 77.618408%, 9.889221%)"
         offset="0.617188"
         id="stop105" />
      <stop
         stop-opacity="1"
         stop-color="rgb(100%, 77.903748%, 9.938049%)"
         offset="0.621094"
         id="stop106" />
      <stop
         stop-opacity="1"
         stop-color="rgb(100%, 78.190613%, 9.986877%)"
         offset="0.625"
         id="stop107" />
      <stop
         stop-opacity="1"
         stop-color="rgb(100%, 78.477478%, 10.035706%)"
         offset="0.628906"
         id="stop108" />
      <stop
         stop-opacity="1"
         stop-color="rgb(100%, 78.764343%, 10.084534%)"
         offset="0.632812"
         id="stop109" />
      <stop
         stop-opacity="1"
         stop-color="rgb(100%, 79.049683%, 10.131836%)"
         offset="0.636719"
         id="stop110" />
      <stop
         stop-opacity="1"
         stop-color="rgb(100%, 79.336548%, 10.180664%)"
         offset="0.640625"
         id="stop111" />
      <stop
         stop-opacity="1"
         stop-color="rgb(100%, 79.623413%, 10.229492%)"
         offset="0.644531"
         id="stop112" />
      <stop
         stop-opacity="1"
         stop-color="rgb(100%, 79.910278%, 10.27832%)"
         offset="0.648438"
         id="stop113" />
      <stop
         stop-opacity="1"
         stop-color="rgb(100%, 80.195618%, 10.327148%)"
         offset="0.652344"
         id="stop114" />
      <stop
         stop-opacity="1"
         stop-color="rgb(100%, 80.482483%, 10.375977%)"
         offset="0.65625"
         id="stop115" />
      <stop
         stop-opacity="1"
         stop-color="rgb(100%, 80.769348%, 10.424805%)"
         offset="0.660156"
         id="stop116" />
      <stop
         stop-opacity="1"
         stop-color="rgb(100%, 81.056213%, 10.473633%)"
         offset="0.664062"
         id="stop117" />
      <stop
         stop-opacity="1"
         stop-color="rgb(100%, 81.341553%, 10.520935%)"
         offset="0.667969"
         id="stop118" />
      <stop
         stop-opacity="1"
         stop-color="rgb(100%, 81.628418%, 10.569763%)"
         offset="0.671875"
         id="stop119" />
      <stop
         stop-opacity="1"
         stop-color="rgb(100%, 81.915283%, 10.618591%)"
         offset="0.675781"
         id="stop120" />
      <stop
         stop-opacity="1"
         stop-color="rgb(100%, 82.202148%, 10.667419%)"
         offset="0.679688"
         id="stop121" />
      <stop
         stop-opacity="1"
         stop-color="rgb(100%, 82.487488%, 10.716248%)"
         offset="0.683594"
         id="stop122" />
      <stop
         stop-opacity="1"
         stop-color="rgb(100%, 82.774353%, 10.765076%)"
         offset="0.6875"
         id="stop123" />
      <stop
         stop-opacity="1"
         stop-color="rgb(100%, 83.061218%, 10.813904%)"
         offset="0.691406"
         id="stop124" />
      <stop
         stop-opacity="1"
         stop-color="rgb(100%, 83.348083%, 10.862732%)"
         offset="0.695312"
         id="stop125" />
      <stop
         stop-opacity="1"
         stop-color="rgb(100%, 83.633423%, 10.910034%)"
         offset="0.699219"
         id="stop126" />
      <stop
         stop-opacity="1"
         stop-color="rgb(100%, 83.920288%, 10.958862%)"
         offset="0.703125"
         id="stop127" />
      <stop
         stop-opacity="1"
         stop-color="rgb(100%, 84.207153%, 11.00769%)"
         offset="0.707031"
         id="stop128" />
      <stop
         stop-opacity="1"
         stop-color="rgb(100%, 84.494019%, 11.056519%)"
         offset="0.710937"
         id="stop129" />
      <stop
         stop-opacity="1"
         stop-color="rgb(100%, 84.779358%, 11.105347%)"
         offset="0.714844"
         id="stop130" />
      <stop
         stop-opacity="1"
         stop-color="rgb(100%, 85.066223%, 11.154175%)"
         offset="0.71875"
         id="stop131" />
      <stop
         stop-opacity="1"
         stop-color="rgb(100%, 85.353088%, 11.203003%)"
         offset="0.722656"
         id="stop132" />
      <stop
         stop-opacity="1"
         stop-color="rgb(100%, 85.639954%, 11.251831%)"
         offset="0.726562"
         id="stop133" />
      <stop
         stop-opacity="1"
         stop-color="rgb(100%, 85.925293%, 11.300659%)"
         offset="0.730469"
         id="stop134" />
      <stop
         stop-opacity="1"
         stop-color="rgb(100%, 86.212158%, 11.349487%)"
         offset="0.734375"
         id="stop135" />
      <stop
         stop-opacity="1"
         stop-color="rgb(100%, 86.499023%, 11.39679%)"
         offset="0.738281"
         id="stop136" />
      <stop
         stop-opacity="1"
         stop-color="rgb(100%, 86.785889%, 11.445618%)"
         offset="0.742187"
         id="stop137" />
      <stop
         stop-opacity="1"
         stop-color="rgb(100%, 87.072754%, 11.494446%)"
         offset="0.746094"
         id="stop138" />
      <stop
         stop-opacity="1"
         stop-color="rgb(100%, 87.359619%, 11.543274%)"
         offset="0.75"
         id="stop139" />
      <stop
         stop-opacity="1"
         stop-color="rgb(100%, 87.644958%, 11.592102%)"
         offset="0.753906"
         id="stop140" />
      <stop
         stop-opacity="1"
         stop-color="rgb(100%, 87.931824%, 11.64093%)"
         offset="0.757812"
         id="stop141" />
      <stop
         stop-opacity="1"
         stop-color="rgb(100%, 88.218689%, 11.689758%)"
         offset="0.761719"
         id="stop142" />
      <stop
         stop-opacity="1"
         stop-color="rgb(100%, 88.505554%, 11.738586%)"
         offset="0.765625"
         id="stop143" />
      <stop
         stop-opacity="1"
         stop-color="rgb(100%, 88.566589%, 11.749268%)"
         offset="0.78125"
         id="stop144" />
      <stop
         stop-opacity="1"
         stop-color="rgb(100%, 88.62915%, 11.759949%)"
         offset="0.8125"
         id="stop145" />
      <stop
         stop-opacity="1"
         stop-color="rgb(100%, 88.62915%, 11.759949%)"
         offset="0.875"
         id="stop146" />
      <stop
         stop-opacity="1"
         stop-color="rgb(100%, 88.62915%, 11.759949%)"
         offset="1"
         id="stop147" />
    </linearGradient>
    <clipPath
       id="a893211167">
      <rect
         x="0"
         width="498"
         y="0"
         height="162"
         id="rect147" />
    </clipPath>
  </defs>
  <g
     clip-path="url(#f8d27f500c)"
     id="g147"
     transform="translate(-383.78125,-330.14452)">
    <path
       fill="#ffffff"
       d="m 464.78125,330.14453 c 1.32812,0 2.65234,0.0312 3.97656,0.0977 1.32422,0.0625 2.64453,0.16015 3.96485,0.28906 1.32031,0.13281 2.63281,0.29297 3.94531,0.48828 1.3125,0.19531 2.61719,0.42188 3.91797,0.67969 1.30078,0.25781 2.59375,0.55078 3.8789,0.87109 1.28516,0.32422 2.5625,0.67578 3.83203,1.0625 1.26563,0.38281 2.52735,0.79688 3.77344,1.2461 1.25,0.44531 2.48438,0.92187 3.71094,1.42968 1.22266,0.50782 2.43359,1.04297 3.63281,1.61328 1.19922,0.56641 2.38281,1.16016 3.55078,1.78516 1.16797,0.625 2.32422,1.27734 3.46094,1.96094 1.13672,0.67969 2.25391,1.39062 3.35938,2.125 1.10156,0.73828 2.18359,1.5 3.25,2.28906 1.0625,0.78906 2.10937,1.60547 3.13281,2.44531 1.02344,0.84375 2.02734,1.70703 3.01172,2.59766 0.98047,0.89062 1.9414,1.80469 2.8789,2.74219 0.9375,0.9375 1.85157,1.89843 2.74219,2.8789 0.88672,0.98438 1.75391,1.98438 2.59375,3.01172 0.84375,1.02344 1.65625,2.07031 2.44922,3.13281 0.78906,1.06641 1.55078,2.14844 2.28906,3.25 0.73438,1.10157 1.44531,2.22266 2.125,3.35938 0.6836,1.13672 1.33594,2.28906 1.96094,3.46094 0.625,1.16797 1.21875,2.35156 1.78516,3.55078 0.5664,1.19922 1.10546,2.41015 1.61328,3.63281 0.50781,1.22656 0.98437,2.46094 1.42968,3.71094 0.44532,1.24609 0.86329,2.5039 1.2461,3.77344 0.38672,1.26953 0.73828,2.54687 1.0625,3.83203 0.32031,1.28515 0.61328,2.57812 0.87109,3.8789 0.25781,1.30078 0.48438,2.60547 0.67969,3.91797 0.19531,1.3125 0.35547,2.625 0.48437,3.94531 0.13282,1.32032 0.23047,2.64063 0.29297,3.96485 0.0664,1.32422 0.0977,2.64844 0.0977,3.97265 v 0.004 c 0,1.32422 -0.0312,2.64844 -0.0977,3.97266 -0.0625,1.32422 -0.16015,2.64843 -0.29297,3.96484 -0.1289,1.32031 -0.28906,2.63672 -0.48437,3.94531 -0.19531,1.3125 -0.42188,2.61719 -0.67969,3.91797 -0.25781,1.30078 -0.55078,2.59375 -0.87109,3.87891 -0.32422,1.28515 -0.67578,2.5625 -1.0625,3.83203 -0.38281,1.26953 -0.80078,2.52734 -1.2461,3.77344 -0.44531,1.25 -0.92187,2.48828 -1.42968,3.71093 -0.50782,1.22657 -1.04688,2.4375 -1.61328,3.63672 -0.56641,1.19532 -1.16016,2.37891 -1.78516,3.55078 -0.625,1.16797 -1.27734,2.32032 -1.96094,3.45704 -0.67969,1.13671 -1.39062,2.25781 -2.125,3.35937 -0.73828,1.10156 -1.5,2.1875 -2.28906,3.25 -0.79297,1.06641 -1.60547,2.10938 -2.44922,3.13281 -0.83984,1.02735 -1.70703,2.03125 -2.59375,3.01172 -0.89062,0.98438 -1.80469,1.94141 -2.74219,2.87891 -0.9375,0.9375 -1.89843,1.85156 -2.8789,2.74219 -0.98438,0.89062 -1.98828,1.75781 -3.01172,2.59765 -1.02344,0.83985 -2.07031,1.65625 -3.13281,2.44531 -1.06641,0.78907 -2.14844,1.55079 -3.25,2.28907 -1.10547,0.73828 -2.22266,1.44531 -3.35938,2.1289 -1.13672,0.67969 -2.29297,1.33203 -3.46094,1.95703 -1.16797,0.625 -2.35156,1.22266 -3.55078,1.78907 -1.19922,0.5664 -2.41015,1.10156 -3.63281,1.60937 -1.22656,0.50781 -2.46094,0.98438 -3.71094,1.42969 -1.24609,0.44922 -2.50781,0.86328 -3.77344,1.25 -1.26953,0.38281 -2.54687,0.73828 -3.83203,1.05859 -1.28515,0.32422 -2.57812,0.61328 -3.8789,0.8711 -1.30078,0.25781 -2.60547,0.48437 -3.91797,0.67968 -1.3125,0.19532 -2.625,0.35938 -3.94531,0.48829 -1.32032,0.1289 -2.64063,0.22656 -3.96485,0.29296 -1.32422,0.0625 -2.64844,0.0977 -3.97656,0.0977 -1.32422,0 -2.64844,-0.0352 -3.97266,-0.0977 -1.32422,-0.0664 -2.64843,-0.16406 -3.96484,-0.29296 -1.32031,-0.12891 -2.63672,-0.29297 -3.94922,-0.48829 -1.30859,-0.19531 -2.61328,-0.42187 -3.91406,-0.67968 -1.30078,-0.25782 -2.59375,-0.54688 -3.87891,-0.8711 -1.28906,-0.32031 -2.5664,-0.67578 -3.83203,-1.05859 -1.26953,-0.38672 -2.52734,-0.80078 -3.77734,-1.24609 -1.2461,-0.44922 -2.48438,-0.92579 -3.70703,-1.4336 -1.22657,-0.50781 -2.4375,-1.04297 -3.63672,-1.60937 -1.19532,-0.56641 -2.37891,-1.16407 -3.55078,-1.78907 -1.16797,-0.625 -2.32032,-1.27734 -3.45704,-1.95703 -1.13671,-0.68359 -2.25781,-1.39062 -3.35937,-2.1289 -1.10156,-0.73828 -2.1875,-1.5 -3.25,-2.28907 -1.06641,-0.78906 -2.10938,-1.60546 -3.13672,-2.44531 -1.02344,-0.83984 -2.02734,-1.70703 -3.00781,-2.59765 -0.98438,-0.89063 -1.94141,-1.80469 -2.87891,-2.74219 -0.9375,-0.9375 -1.85156,-1.89453 -2.74219,-2.87891 -0.89062,-0.98047 -1.75781,-1.98437 -2.59765,-3.01172 -0.83985,-1.02343 -1.65625,-2.0664 -2.44531,-3.13281 -0.78907,-1.0625 -1.55469,-2.14844 -2.28907,-3.25 -0.73828,-1.10156 -1.44531,-2.22266 -2.1289,-3.35937 -0.67969,-1.13672 -1.33203,-2.28907 -1.95703,-3.45704 -0.625,-1.17187 -1.22266,-2.35546 -1.78907,-3.55078 -0.5664,-1.19922 -1.10547,-2.41015 -1.60937,-3.63672 -0.50781,-1.22265 -0.98438,-2.46093 -1.4336,-3.71093 -0.44531,-1.2461 -0.85937,-2.50391 -1.24609,-3.77344 -0.38281,-1.26953 -0.73828,-2.54688 -1.05859,-3.83203 -0.32422,-1.28516 -0.61328,-2.57813 -0.8711,-3.87891 -0.26172,-1.30078 -0.48828,-2.60547 -0.67968,-3.91797 -0.19532,-1.30859 -0.35938,-2.625 -0.48829,-3.94531 -0.1289,-1.31641 -0.22656,-2.64062 -0.29296,-3.96484 -0.0625,-1.32422 -0.0977,-2.64844 -0.0977,-3.97266 v -0.004 c 0,-1.32421 0.0352,-2.64843 0.0977,-3.97265 0.0664,-1.32422 0.16406,-2.64453 0.29296,-3.96485 0.12891,-1.32031 0.29297,-2.63281 0.48829,-3.94531 0.1914,-1.3125 0.41796,-2.61719 0.67968,-3.91797 0.25782,-1.30078 0.54688,-2.59375 0.8711,-3.8789 0.32031,-1.28516 0.67578,-2.5625 1.05859,-3.83203 0.38672,-1.26954 0.80078,-2.52735 1.24609,-3.77344 0.44922,-1.25 0.92579,-2.48438 1.4336,-3.71094 0.5039,-1.22266 1.04297,-2.43359 1.60937,-3.63281 0.56641,-1.19922 1.16407,-2.38281 1.78907,-3.55078 0.625,-1.17188 1.27734,-2.32422 1.95703,-3.46094 0.68359,-1.13672 1.39062,-2.25781 2.1289,-3.35938 0.73438,-1.10156 1.5,-2.18359 2.28907,-3.25 0.78906,-1.0625 1.60546,-2.10937 2.44531,-3.13281 0.83984,-1.02734 1.70703,-2.02734 2.59765,-3.01172 0.89063,-0.98047 1.80469,-1.9414 2.74219,-2.8789 0.9375,-0.9375 1.89453,-1.85157 2.87891,-2.74219 0.98047,-0.89063 1.98437,-1.75391 3.00781,-2.59766 1.02734,-0.83984 2.07031,-1.65625 3.13672,-2.44531 1.0625,-0.78906 2.14844,-1.55078 3.25,-2.28906 1.10156,-0.73438 2.22266,-1.44531 3.35937,-2.125 1.13672,-0.6836 2.28907,-1.33594 3.45704,-1.96094 1.17187,-0.625 2.35546,-1.21875 3.55078,-1.78516 1.19922,-0.57031 2.41015,-1.10546 3.63672,-1.61328 1.22265,-0.50781 2.46093,-0.98437 3.70703,-1.42968 1.25,-0.44922 2.50781,-0.86329 3.77734,-1.2461 1.26563,-0.38672 2.54297,-0.73828 3.83203,-1.0625 1.28516,-0.32031 2.57813,-0.61328 3.87891,-0.87109 1.30078,-0.25781 2.60547,-0.48438 3.91406,-0.67969 1.3125,-0.19531 2.62891,-0.35547 3.94922,-0.48828 1.31641,-0.12891 2.64062,-0.22656 3.96484,-0.28906 1.32422,-0.0664 2.64844,-0.0977 3.97266,-0.0977 z m 0,0"
       fill-opacity="1"
       fill-rule="nonzero"
       id="path147" />
  </g>
  <g
     clip-path="url(#47f3f7f68e)"
     id="g149"
     transform="translate(-383.78125,-330.14452)">
    <g
       clip-path="url(#283f61a8b2)"
       id="g148">
      <path
         fill="url(#45ec4ea0b7)"
         d="m 445.71875,388.04687 v 71.1211 h 38.02344 v -71.1211 z m 0,0"
         fill-rule="nonzero"
         id="path148"
         style="fill:url(#45ec4ea0b7)" />
    </g>
  </g>
  <path
     fill="#097aff"
     d="m 100.01172,35.835943 c 0,0 0.75781,-3.78516 5.60547,-2.64844 4.84765,1.13672 13.2539,3.63281 18.40234,6.81641 0,0 3.18359,2.42187 1.21484,5.375 0,0 -0.45703,2.04687 -4.54687,1.36328 0,0 -6.58594,-3.78516 -19.3125,-6.96485 0,0 -2.121089,-1.11328 -1.36328,-3.9414 z m 0,0"
     fill-opacity="1"
     fill-rule="nonzero"
     id="path149" />
  <path
     fill="#097aff"
     d="m 61.988281,35.898443 c 0,0 -0.75781,-3.78906 -5.60547,-2.65235 -4.84765,1.13672 -13.2539,3.63672 -18.40234,6.81641 0,0 -3.1836,2.42188 -1.21094,5.37891 0,0 0.45313,2.04297 4.54297,1.36328 0,0 6.58984,-3.78906 19.3125,-6.96875 0,0 2.12109,-1.11328 1.36328,-3.9375 z m 0,0"
     fill-opacity="1"
     fill-rule="nonzero"
     id="path150" />
  <g
     transform="translate(183.21875,-35.144527)"
     id="g182">
    <g
       clip-path="url(#a893211167)"
       id="g181">
      <g
         fill="#ffffff"
         fill-opacity="1"
         id="g153">
        <g
           transform="translate(0.305506,104.64591)"
           id="g152">
          <g
             id="g151">
            <path
               d="m 3.5625,-28.015625 c 0,-9.664063 2.785156,-16.882813 8.359375,-21.65625 5.570313,-4.769531 14.285156,-7.15625 26.140625,-7.15625 5.695312,0 10.53125,0.265625 14.5,0.796875 3.96875,0.53125 7.789062,1.390625 11.46875,2.578125 0.476562,0.117187 0.863281,0.339844 1.15625,0.671875 0.300781,0.324219 0.453125,0.871094 0.453125,1.640625 0,0.886719 -0.273437,2.308594 -0.8125,4.265625 -0.585937,2.023438 -1.101563,3.402344 -1.546875,4.140625 -0.449219,0.742187 -0.996094,1.109375 -1.640625,1.109375 -0.367187,0 -0.636719,-0.03125 -0.8125,-0.09375 -2.84375,-0.945312 -6.015625,-1.671875 -9.515625,-2.171875 -3.5,-0.5 -7.292969,-0.75 -11.375,-0.75 -7.0625,0 -12.121094,1.4375 -15.171875,4.3125 -3.054687,2.875 -4.578125,6.980469 -4.578125,12.3125 0,5.335937 1.523438,9.453125 4.578125,12.359375 3.050781,2.90625 8.109375,4.359375 15.171875,4.359375 4.082031,0 7.875,-0.265625 11.375,-0.796875 3.5,-0.53125 6.671875,-1.269531 9.515625,-2.21875 0.175781,-0.0625 0.445313,-0.09375 0.8125,-0.09375 0.644531,0 1.191406,0.359375 1.640625,1.078125 0.445312,0.710937 0.960938,2.101563 1.546875,4.171875 0.539063,1.960938 0.8125,3.382812 0.8125,4.265625 0,0.773437 -0.152344,1.324219 -0.453125,1.65625 -0.292969,0.324219 -0.679688,0.542969 -1.15625,0.65625 -3.679688,1.125 -7.5,1.96875 -11.46875,2.53125 -3.96875,0.5625 -8.804688,0.84375 -14.5,0.84375 -11.855469,0 -20.570312,-2.382813 -26.140625,-7.15625 C 6.347656,-11.128906 3.5625,-18.347656 3.5625,-28.015625 Z m 0,0"
               id="path151" />
          </g>
        </g>
      </g>
      <g
         fill="#ffffff"
         fill-opacity="1"
         id="g156">
        <g
           transform="translate(69.492787,104.64591)"
           id="g155">
          <g
             id="g154">
            <path
               d="m 19.03125,-20.015625 c 0,3.085937 0.960938,5.515625 2.890625,7.296875 1.925781,1.78125 4.9375,2.671875 9.03125,2.671875 4.09375,0 7.128906,-0.890625 9.109375,-2.671875 1.988281,-1.78125 2.984375,-4.210938 2.984375,-7.296875 0,-3.132813 -0.996094,-5.578125 -2.984375,-7.328125 -1.980469,-1.75 -5.015625,-2.625 -9.109375,-2.625 -4.09375,0 -7.105469,0.875 -9.03125,2.625 -1.929687,1.75 -2.890625,4.195312 -2.890625,7.328125 z m -15.46875,0 c 0,-6.519531 2.234375,-11.617187 6.703125,-15.296875 4.476563,-3.675781 11.375,-5.515625 20.6875,-5.515625 9.300781,0 16.207031,1.839844 20.71875,5.515625 4.507813,3.679688 6.765625,8.777344 6.765625,15.296875 0,6.523437 -2.257812,11.621094 -6.765625,15.296875 -4.511719,3.679688 -11.417969,5.515625 -20.71875,5.515625 -9.3125,0 -16.210937,-1.835937 -20.6875,-5.515625 C 5.796875,-8.394531 3.5625,-13.492188 3.5625,-20.015625 Z m 0,0"
               id="path153" />
          </g>
        </g>
      </g>
      <g
         fill="#ffffff"
         fill-opacity="1"
         id="g159">
        <g
           transform="translate(131.47676,104.64591)"
           id="g158">
          <g
             id="g157">
            <path
               d="M 4.984375,-2.40625 V -57.625 c 0,-1.1875 0.488281,-2.015625 1.46875,-2.484375 0.976563,-0.476563 3.066406,-0.71875 6.265625,-0.71875 3.195312,0 5.285156,0.242187 6.265625,0.71875 0.976563,0.46875 1.46875,1.296875 1.46875,2.484375 v 55.21875 c 0,1.125 -0.492187,1.9375 -1.46875,2.4375 -0.980469,0.507812 -3.070313,0.765625 -6.265625,0.765625 -3.199219,0 -5.289062,-0.257813 -6.265625,-0.765625 -0.980469,-0.5 -1.46875,-1.3125 -1.46875,-2.4375 z m 0,0"
               id="path156" />
          </g>
        </g>
      </g>
      <g
         fill="#ffffff"
         fill-opacity="1"
         id="g162">
        <g
           transform="translate(156.82172,104.64591)"
           id="g161">
          <g
             id="g160">
            <path
               d="m 19.03125,-20.015625 c 0,3.085937 0.960938,5.515625 2.890625,7.296875 1.925781,1.78125 4.9375,2.671875 9.03125,2.671875 4.09375,0 7.128906,-0.890625 9.109375,-2.671875 1.988281,-1.78125 2.984375,-4.210938 2.984375,-7.296875 0,-3.132813 -0.996094,-5.578125 -2.984375,-7.328125 -1.980469,-1.75 -5.015625,-2.625 -9.109375,-2.625 -4.09375,0 -7.105469,0.875 -9.03125,2.625 -1.929687,1.75 -2.890625,4.195312 -2.890625,7.328125 z m -15.46875,0 c 0,-6.519531 2.234375,-11.617187 6.703125,-15.296875 4.476563,-3.675781 11.375,-5.515625 20.6875,-5.515625 9.300781,0 16.207031,1.839844 20.71875,5.515625 4.507813,3.679688 6.765625,8.777344 6.765625,15.296875 0,6.523437 -2.257812,11.621094 -6.765625,15.296875 -4.511719,3.679688 -11.417969,5.515625 -20.71875,5.515625 -9.3125,0 -16.210937,-1.835937 -20.6875,-5.515625 C 5.796875,-8.394531 3.5625,-13.492188 3.5625,-20.015625 Z m 0,0"
               id="path159" />
          </g>
        </g>
      </g>
      <g
         fill="#ffffff"
         fill-opacity="1"
         id="g165">
        <g
           transform="translate(218.8057,104.64591)"
           id="g164">
          <g
             id="g163">
            <path
               d="m 4.984375,-2.40625 v -28.359375 c 0,-1.84375 0.707031,-3.382813 2.125,-4.625 1.71875,-1.539063 4.222656,-2.832031 7.515625,-3.875 3.289062,-1.039063 7.222656,-1.5625 11.796875,-1.5625 2.957031,0 5.945313,0.195313 8.96875,0.578125 3.03125,0.386719 5.375,0.875 7.03125,1.46875 0.476563,0.125 0.847656,0.339844 1.109375,0.640625 0.269531,0.292969 0.40625,0.792969 0.40625,1.5 0,0.710937 -0.242188,1.953125 -0.71875,3.734375 -0.53125,1.835938 -1.007812,3.078125 -1.421875,3.734375 -0.417969,0.65625 -0.921875,0.984375 -1.515625,0.984375 -0.292969,0 -0.527344,-0.03125 -0.703125,-0.09375 -1.304687,-0.476562 -3.171875,-0.878906 -5.609375,-1.203125 -2.429688,-0.320313 -5.273438,-0.484375 -8.53125,-0.484375 -0.886719,0 -1.730469,0.04687 -2.53125,0.140625 -0.804688,0.08594 -1.621094,0.183594 -2.453125,0.296875 v 27.125 c 0,1.125 -0.492187,1.9375 -1.46875,2.4375 -0.980469,0.507812 -3.070313,0.765625 -6.265625,0.765625 -3.199219,0 -5.289062,-0.257813 -6.265625,-0.765625 -0.980469,-0.5 -1.46875,-1.3125 -1.46875,-2.4375 z m 0,0"
               id="path162" />
          </g>
        </g>
      </g>
      <g
         fill="#ffffff"
         fill-opacity="1"
         id="g168">
        <g
           transform="translate(263.44839,104.64591)"
           id="g167">
          <g
             id="g166" />
        </g>
      </g>
      <g
         fill="#ffffff"
         fill-opacity="1"
         id="g171">
        <g
           transform="translate(285.85867,104.64591)"
           id="g170">
          <g
             id="g169">
            <path
               d="m 36.640625,-56.828125 c 3.082031,0 6.238281,0.136719 9.46875,0.40625 3.238281,0.261719 6.296875,0.617187 9.171875,1.0625 2.875,0.4375 5.285156,0.984375 7.234375,1.640625 0.539063,0.179688 0.941406,0.417969 1.203125,0.71875 0.269531,0.292969 0.40625,0.792969 0.40625,1.5 0,0.898438 -0.265625,2.324219 -0.796875,4.28125 -0.542969,2.011719 -1.054687,3.402344 -1.53125,4.171875 -0.46875,0.773437 -1.027344,1.15625 -1.671875,1.15625 -0.179688,0 -0.445312,-0.05469 -0.796875,-0.171875 -2.855469,-0.945312 -6.121094,-1.628906 -9.796875,-2.046875 -3.667969,-0.414063 -7.195312,-0.625 -10.578125,-0.625 -6.636719,0 -11.40625,1.5 -14.3125,4.5 -2.90625,2.992187 -4.359375,7.0625 -4.359375,12.21875 0,5.15625 1.4375,9.234375 4.3125,12.234375 2.875,2.992188 7.484375,4.484375 13.828125,4.484375 2.3125,0 4.367187,-0.101563 6.171875,-0.3125 1.8125,-0.207031 3.398438,-0.457031 4.765625,-0.75 l -0.09375,-9.875 h -9.0625 c -0.898437,0 -1.554687,-0.351563 -1.96875,-1.0625 -0.40625,-0.71875 -0.609375,-2.289063 -0.609375,-4.71875 0,-2.425781 0.203125,-3.992187 0.609375,-4.703125 0.414063,-0.71875 1.070313,-1.078125 1.96875,-1.078125 H 59.40625 c 1.71875,0 3.1875,0.609375 4.40625,1.828125 1.21875,1.210938 1.828125,2.671875 1.828125,4.390625 V -8.71875 c 0,1.304688 -0.375,2.492188 -1.125,3.5625 -0.742187,1.0625 -1.730469,1.835938 -2.96875,2.3125 C 59.234375,-1.894531 56,-1.050781 51.84375,-0.3125 47.695312,0.425781 42.628906,0.796875 36.640625,0.796875 c -11.5625,0 -19.96875,-2.503906 -25.21875,-7.515625 C 6.179688,-11.726562 3.5625,-18.828125 3.5625,-28.015625 c 0,-9.1875 2.617188,-16.285156 7.859375,-21.296875 5.25,-5.007812 13.65625,-7.515625 25.21875,-7.515625 z m 0,0"
               id="path168" />
          </g>
        </g>
      </g>
      <g
         fill="#ffffff"
         fill-opacity="1"
         id="g174">
        <g
           transform="translate(355.84632,104.64591)"
           id="g173">
          <g
             id="g172">
            <path
               d="m 12.71875,-60.65625 c 3.320312,0 5.484375,0.242188 6.484375,0.71875 1.007813,0.46875 1.515625,1.296875 1.515625,2.484375 V -49.625 c 0,1.125 -0.507812,1.945312 -1.515625,2.453125 -1,0.5 -3.164063,0.75 -6.484375,0.75 -3.324219,0 -5.492188,-0.25 -6.5,-0.75 -1,-0.507813 -1.5,-1.328125 -1.5,-2.453125 v -7.828125 c 0,-1.1875 0.5,-2.015625 1.5,-2.484375 1.007812,-0.476562 3.175781,-0.71875 6.5,-0.71875 z m 0,19.828125 c 3.195312,0 5.285156,0.242187 6.265625,0.71875 0.976563,0.46875 1.46875,1.296875 1.46875,2.484375 v 35.21875 c 0,1.125 -0.492187,1.9375 -1.46875,2.4375 -0.980469,0.507812 -3.070313,0.765625 -6.265625,0.765625 -3.199219,0 -5.289062,-0.257813 -6.265625,-0.765625 -0.980469,-0.5 -1.46875,-1.3125 -1.46875,-2.4375 V -37.625 c 0,-1.1875 0.488281,-2.015625 1.46875,-2.484375 0.976563,-0.476563 3.066406,-0.71875 6.265625,-0.71875 z m 0,0"
               id="path171" />
          </g>
        </g>
      </g>
      <g
         fill="#ffffff"
         fill-opacity="1"
         id="g177">
        <g
           transform="translate(381.1913,104.64591)"
           id="g176">
          <g
             id="g175">
            <path
               d="m 3.5625,-20.015625 c 0,-7.226563 2.175781,-12.503906 6.53125,-15.828125 4.351562,-3.320312 10.207031,-4.984375 17.5625,-4.984375 2.3125,0 4.488281,0.136719 6.53125,0.40625 2.050781,0.273437 3.9375,0.640625 5.65625,1.109375 V -57.625 c 0,-1.1875 0.472656,-2.015625 1.421875,-2.484375 0.945313,-0.476563 3.023437,-0.71875 6.234375,-0.71875 3.195312,0 5.285156,0.242187 6.265625,0.71875 0.976563,0.46875 1.46875,1.296875 1.46875,2.484375 v 47.84375 c 0,2.375 -0.980469,4.214844 -2.9375,5.515625 -1.074219,0.648437 -2.484375,1.371094 -4.234375,2.171875 -1.742188,0.804688 -3.976562,1.484375 -6.703125,2.046875 -2.730469,0.5625 -6.054687,0.84375 -9.96875,0.84375 -5.09375,0 -9.746094,-0.652344 -13.953125,-1.953125 -4.210938,-1.300781 -7.574219,-3.460938 -10.09375,-6.484375 -2.523438,-3.03125 -3.78125,-7.15625 -3.78125,-12.375 z m 36.28125,8.359375 v -16.625 c -1.304688,-0.476562 -2.699219,-0.878906 -4.1875,-1.203125 -1.480469,-0.320313 -3.046875,-0.484375 -4.703125,-0.484375 -3.679687,0 -6.585937,0.773438 -8.71875,2.3125 -2.136719,1.542969 -3.203125,4.089844 -3.203125,7.640625 0,3.5625 1.09375,6.117187 3.28125,7.65625 2.195312,1.542969 5.195312,2.3125 9,2.3125 1.539062,0 3.035156,-0.160156 4.484375,-0.484375 1.445313,-0.332031 2.796875,-0.707031 4.046875,-1.125 z m 0,0"
               id="path174" />
          </g>
        </g>
      </g>
      <g
         fill="#ffffff"
         fill-opacity="1"
         id="g180">
        <g
           transform="translate(441.39667,104.64591)"
           id="g179">
          <g
             id="g178">
            <path
               d="m 28.375,-40.828125 c 5.6875,0 10.234375,0.804687 13.640625,2.40625 3.414063,1.605469 5.894531,3.757813 7.4375,6.453125 1.539063,2.699219 2.3125,5.703125 2.3125,9.015625 0,4.929687 -2.578125,7.390625 -7.734375,7.390625 l -24.375,-0.09375 c 1.539062,4.449219 6.195312,6.671875 13.96875,6.671875 2.601562,0 4.796875,-0.207031 6.578125,-0.625 1.78125,-0.414063 3.851563,-0.976563 6.21875,-1.6875 0.175781,-0.0625 0.414063,-0.09375 0.71875,-0.09375 0.59375,0 1.109375,0.3125 1.546875,0.9375 0.445312,0.625 0.878906,1.742187 1.296875,3.34375 0.351563,1.304687 0.53125,2.339844 0.53125,3.109375 0,1.125 -0.476563,1.867188 -1.421875,2.21875 -2.25,0.65625 -4.28125,1.179688 -6.09375,1.5625 -1.8125,0.382812 -3.742188,0.648438 -5.78125,0.796875 -2.042969,0.144531 -4.578125,0.21875 -7.609375,0.21875 -8.835937,0 -15.386719,-1.757813 -19.65625,-5.28125 -4.261719,-3.53125 -6.390625,-8.707031 -6.390625,-15.53125 0,-6.8125 2.039062,-11.984375 6.125,-15.515625 4.09375,-3.53125 10.320312,-5.296875 18.6875,-5.296875 z m 9.15625,17 c -0.417969,-2.550781 -1.355469,-4.375 -2.8125,-5.46875 -1.449219,-1.101563 -3.476562,-1.65625 -6.078125,-1.65625 -5.21875,0 -8.304687,2.375 -9.25,7.125 z m 0,0"
               id="path177" />
          </g>
        </g>
      </g>
    </g>
  </g>
  <g
     fill="#ffffff"
     fill-opacity="1"
     id="g185"
     transform="translate(-383.78125,-330.14452)">
    <g
       transform="translate(573.69624,468.59642)"
       id="g184">
      <g
         id="g183">
        <path
           d="M 4.328125,-0.109375 C 4.066406,-0.523438 3.894531,-0.976562 3.8125,-1.46875 c -0.074219,-0.5 -0.109375,-1.015625 -0.109375,-1.546875 0,-0.425781 0.019531,-0.859375 0.0625,-1.296875 0.039063,-0.4375 0.0625,-0.863281 0.0625,-1.28125 0,-0.144531 -0.011719,-0.285156 -0.03125,-0.421875 C 3.773438,-6.148438 3.765625,-6.289062 3.765625,-6.4375 3.691406,-6.894531 3.65625,-7.34375 3.65625,-7.78125 c 0,-0.4375 0,-1.035156 0,-1.796875 v -3.25 c 0,-0.53125 0,-1.035156 0,-1.515625 0,-0.476562 -0.023438,-0.90625 -0.0625,-1.28125 C 3.476562,-17.03125 3.320312,-18.566406 3.125,-20.234375 2.9375,-21.910156 2.84375,-23.625 2.84375,-25.375 c 0,-0.226562 0.00781,-0.457031 0.03125,-0.6875 0.019531,-0.226562 0.03125,-0.457031 0.03125,-0.6875 0.226562,-0.457031 0.664062,-0.882812 1.3125,-1.28125 0.644531,-0.394531 1.289062,-0.59375 1.9375,-0.59375 0.300781,0 0.59375,0.04687 0.875,0.140625 0.289062,0.09375 0.550781,0.292969 0.78125,0.59375 0.15625,0.1875 0.25,0.445313 0.28125,0.765625 0.039062,0.324219 0.0625,0.699219 0.0625,1.125 0,0.335938 -0.011719,0.671875 -0.03125,1.015625 -0.023438,0.34375 -0.03125,0.6875 -0.03125,1.03125 v 0.96875 c 0,1.148437 0.046875,2.402344 0.140625,3.765625 0.101563,1.367188 0.15625,2.828125 0.15625,4.390625 0,0.949219 0.023437,1.976563 0.078125,3.078125 0.050781,1.105469 0.101562,2.171875 0.15625,3.203125 0.0625,1.023437 0.117188,1.96875 0.171875,2.84375 0.0625,0.875 0.113281,1.558594 0.15625,2.046875 v 0.34375 c 0,1.105469 -0.296875,1.933594 -0.890625,2.484375 C 7.476562,-0.273438 6.65625,0 5.59375,0 5.394531,0 5.191406,-0.0078125 4.984375,-0.03125 4.773438,-0.0507812 4.554688,-0.078125 4.328125,-0.109375 Z m 14.265625,-28.40625 c 0.257812,0.417969 0.425781,0.875 0.5,1.375 0.08203,0.492187 0.125,1 0.125,1.53125 0,0.417969 -0.02344,0.84375 -0.0625,1.28125 -0.03125,0.4375 -0.04687,0.867187 -0.04687,1.28125 0,0.15625 0.0039,0.304687 0.01563,0.4375 0.01953,0.136719 0.03125,0.277344 0.03125,0.421875 0.08203,0.460938 0.125,0.90625 0.125,1.34375 0,0.4375 0,1.039062 0,1.796875 v 3.25 c 0,0.53125 0,1.039063 0,1.515625 0,0.46875 0.01563,0.898438 0.04687,1.28125 0.113281,1.40625 0.265625,2.949219 0.453125,4.625 0.195312,1.667969 0.296875,3.375 0.296875,5.125 0,0.230469 -0.01172,0.460938 -0.03125,0.6875 -0.02344,0.230469 -0.03125,0.460938 -0.03125,0.6875 C 19.785161,-1.425781 19.347661,-1 18.70313,-0.59375 18.054688,-0.195312 17.410156,0 16.765625,0 16.460938,0 16.164062,-0.046875 15.875,-0.140625 c -0.28125,-0.09375 -0.539062,-0.289063 -0.765625,-0.59375 -0.148437,-0.195313 -0.242187,-0.457031 -0.28125,-0.78125 -0.04297,-0.320313 -0.0625,-0.691406 -0.0625,-1.109375 0,-0.34375 0.0078,-0.679688 0.03125,-1.015625 0.01953,-0.34375 0.03125,-0.6875 0.03125,-1.03125 v -0.96875 c 0,-1.144531 -0.04687,-2.398437 -0.140625,-3.765625 -0.09375,-1.375 -0.140625,-2.835938 -0.140625,-4.390625 0,-0.957031 -0.03125,-1.984375 -0.09375,-3.078125 -0.05469,-1.101562 -0.109375,-2.164062 -0.171875,-3.1875 -0.05469,-1.03125 -0.109375,-1.972656 -0.171875,-2.828125 -0.05469,-0.863281 -0.101563,-1.5625 -0.140625,-2.09375 v -0.34375 c 0,-1.09375 0.289062,-1.914063 0.875,-2.46875 0.59375,-0.550781 1.425781,-0.828125 2.5,-0.828125 0.1875,0 0.382812,0.01172 0.59375,0.03125 0.207031,0.01172 0.425781,0.03906 0.65625,0.07813 z m 0,0"
           id="path182" />
      </g>
    </g>
  </g>
  <g
     fill="#ffffff"
     fill-opacity="1"
     id="g188"
     transform="translate(-383.78125,-330.14452)">
    <g
       transform="translate(596.61965,468.59642)"
       id="g187">
      <g
         id="g186">
        <path
           d="m 20.25,-23.09375 c 0.07031,-0.382812 0.109375,-0.726562 0.109375,-1.03125 0,-0.375 -0.02344,-0.75 -0.0625,-1.125 -0.03125,-0.382812 -0.04687,-0.734375 -0.04687,-1.046875 0,-0.1875 0.03516,-0.394531 0.109375,-0.625 0.269531,-0.644531 0.734375,-1.117187 1.390625,-1.421875 0.664062,-0.300781 1.363281,-0.453125 2.09375,-0.453125 0.5625,0 1.054688,0.07422 1.484375,0.21875 0.300781,0.273437 0.488281,0.554687 0.5625,0.84375 0.07031,0.28125 0.109375,0.574219 0.109375,0.875 0,0.34375 -0.03125,0.710937 -0.09375,1.09375 -0.05469,0.375 -0.09375,0.75 -0.125,1.125 -0.04297,0.417969 -0.07422,0.867187 -0.09375,1.34375 -0.02344,0.480469 -0.03125,0.964844 -0.03125,1.453125 0,0.761719 0.01953,1.542969 0.0625,2.34375 0.03906,0.792969 0.09766,1.589844 0.171875,2.390625 V -0.6875 c -0.34375,0.273438 -0.605469,0.453125 -0.78125,0.546875 C 24.941406,-0.046875 24.632812,0 24.1875,0 c -0.761719,0 -1.429688,-0.148438 -2,-0.453125 -0.574219,-0.300781 -0.953125,-0.773437 -1.140625,-1.421875 -0.04297,-0.15625 -0.0625,-0.382812 -0.0625,-0.6875 0,-0.34375 0.0078,-0.800781 0.03125,-1.375 0.01953,-0.570312 0.03125,-0.953125 0.03125,-1.140625 0,-0.070313 -0.01172,-0.164063 -0.03125,-0.28125 -0.02344,-0.113281 -0.03125,-0.207031 -0.03125,-0.28125 v -0.34375 c 0,-0.039063 -0.01172,-0.070313 -0.03125,-0.09375 C 20.941406,-6.097656 20.9375,-6.125 20.9375,-6.15625 c 0,-0.113281 -0.02344,-0.207031 -0.0625,-0.28125 -0.617188,2.398438 -1.589844,4.109375 -2.921875,5.140625 -1.324219,1.023437 -3.125,1.53125 -5.40625,1.53125 -0.71875,0 -1.402344,-0.054687 -2.046875,-0.15625 C 9.851562,-0.0117188 9.28125,-0.132812 8.78125,-0.28125 7.789062,-0.582031 6.988281,-1.066406 6.375,-1.734375 5.769531,-2.398438 5.285156,-3.1875 4.921875,-4.09375 4.566406,-5.007812 4.320312,-6.019531 4.1875,-7.125 4.050781,-8.226562 3.984375,-9.367188 3.984375,-10.546875 c 0,-0.988281 0.035156,-1.988281 0.109375,-3 0.082031,-1.007813 0.160156,-2.003906 0.234375,-2.984375 L 4.5,-19.390625 c 0,-0.15625 0.00781,-0.285156 0.03125,-0.390625 0.019531,-0.113281 0.03125,-0.25 0.03125,-0.40625 0,-0.644531 -0.046875,-1.289062 -0.140625,-1.9375 -0.09375,-0.644531 -0.21875,-1.195312 -0.375,-1.65625 -0.304687,-0.07031 -0.617187,-0.128906 -0.9375,-0.171875 C 2.785156,-23.992188 2.476562,-24.0625 2.1875,-24.15625 1.90625,-24.25 1.660156,-24.367188 1.453125,-24.515625 c -0.210937,-0.15625 -0.371094,-0.382813 -0.484375,-0.6875 -0.074219,-0.226563 -0.109375,-0.398437 -0.109375,-0.515625 0,-0.5 0.160156,-0.972656 0.484375,-1.421875 0.320312,-0.457031 0.671875,-0.800781 1.046875,-1.03125 C 3.003906,-28.472656 3.707031,-28.625 4.5,-28.625 c 0.875,0 1.738281,0.140625 2.59375,0.421875 0.863281,0.28125 1.445312,0.578125 1.75,0.890625 0.1875,0.230469 0.363281,0.542969 0.53125,0.9375 0.175781,0.398438 0.320312,0.84375 0.4375,1.34375 0.113281,0.492188 0.207031,1 0.28125,1.53125 0.07031,0.53125 0.109375,1.046875 0.109375,1.546875 -0.03125,0.460937 -0.105469,1.171875 -0.21875,2.140625 -0.117187,0.96875 -0.230469,1.984375 -0.34375,3.046875 -0.117187,1.0625 -0.214844,2.074219 -0.296875,3.03125 -0.074219,0.949219 -0.109375,1.632813 -0.109375,2.046875 0,1.367188 0.125,2.632812 0.375,3.796875 0.25,1.15625 0.734375,2.1875 1.453125,3.09375 0.6875,0.273437 1.332031,0.40625 1.9375,0.40625 0.988281,0 1.863281,-0.300781 2.625,-0.90625 0.757812,-0.613281 1.414062,-1.421875 1.96875,-2.421875 0.550781,-1.007812 1,-2.140625 1.34375,-3.390625 0.34375,-1.257813 0.617188,-2.535156 0.828125,-3.828125 0.207031,-1.289062 0.347656,-2.535156 0.421875,-3.734375 0.07031,-1.195313 0.109375,-2.253906 0.109375,-3.171875 z m 0,0"
           id="path185" />
      </g>
    </g>
  </g>
  <g
     fill="#ffffff"
     fill-opacity="1"
     id="g191"
     transform="translate(-383.78125,-330.14452)">
    <g
       transform="translate(626.21479,468.59642)"
       id="g190">
      <g
         id="g189">
        <path
           d="M 13.109375,-24.125 C 12.390625,-24.195312 11.6875,-24.328125 11,-24.515625 10.320312,-24.710938 9.5625,-24.8125 8.71875,-24.8125 c -0.1875,0 -0.371094,0 -0.546875,0 -0.167969,0 -0.34375,0.02344 -0.53125,0.0625 -0.304687,0.04297 -0.65625,0.15625 -1.0625,0.34375 -0.398437,0.1875 -0.835937,0.382812 -1.3125,0.578125 -0.46875,0.1875 -0.945313,0.367187 -1.421875,0.53125 -0.46875,0.167969 -0.914062,0.25 -1.328125,0.25 -0.429687,0 -0.792969,-0.109375 -1.09375,-0.328125 -0.304687,-0.226562 -0.511719,-0.628906 -0.625,-1.203125 0,-0.07031 -0.011719,-0.132813 -0.03125,-0.1875 -0.023437,-0.0625 -0.03125,-0.132813 -0.03125,-0.21875 0,-0.601563 0.242187,-1.132813 0.734375,-1.59375 0.5,-0.457031 1.117188,-0.851563 1.859375,-1.1875 0.75,-0.34375 1.550781,-0.617187 2.40625,-0.828125 0.851563,-0.21875 1.640625,-0.363281 2.359375,-0.4375 0.300781,-0.03125 0.578125,-0.04687 0.828125,-0.04687 0.25,0 0.523437,0 0.828125,0 1.820312,0 3.515625,0.230469 5.078125,0.6875 1.5625,0.449219 2.722656,1.109375 3.484375,1.984375 0.675781,0.761719 1.1875,1.65625 1.53125,2.6875 0.34375,1.023438 0.585938,2.105469 0.734375,3.25 0.15625,1.136719 0.257813,2.304688 0.3125,3.5 0.0625,1.199219 0.171875,2.386719 0.328125,3.5625 0.07031,0.386719 0.109375,0.75 0.109375,1.09375 0,0.335938 0,0.671875 0,1.015625 0,1.605469 -0.21875,3.109375 -0.65625,4.515625 -0.4375,1.40625 -1.074219,2.625 -1.90625,3.65625 -0.835937,1.023438 -1.851563,1.828125 -3.046875,2.421875 -1.199219,0.585937 -2.558594,0.875 -4.078125,0.875 C 10.992188,0.171875 10.363281,0.113281 9.75,0 9.40625,-0.0390625 8.9375,-0.132812 8.34375,-0.28125 7.757812,-0.4375 7.171875,-0.628906 6.578125,-0.859375 5.992188,-1.085938 5.472656,-1.363281 5.015625,-1.6875 4.554688,-2.007812 4.3125,-2.359375 4.28125,-2.734375 v -0.28125 c 0,-0.800781 0.40625,-1.457031 1.21875,-1.96875 0.820312,-0.519531 1.726562,-0.78125 2.71875,-0.78125 h 0.5 c 0.457031,0.042969 0.835938,0.140625 1.140625,0.296875 0.3125,0.148438 0.578125,0.296875 0.796875,0.453125 0.226562,0.148437 0.46875,0.277344 0.71875,0.390625 0.25,0.117188 0.546875,0.171875 0.890625,0.171875 0.113281,0 0.226563,-0.00391 0.34375,-0.015625 C 12.722656,-4.488281 12.851562,-4.519531 13,-4.5625 c 0.5,-0.113281 0.910156,-0.445312 1.234375,-1 C 14.554688,-6.113281 14.8125,-6.796875 15,-7.609375 c 0.1875,-0.820313 0.328125,-1.753906 0.421875,-2.796875 0.09375,-1.039062 0.140625,-2.097656 0.140625,-3.171875 0,-1.59375 -0.07813,-2.976563 -0.234375,-4.15625 -0.148437,-1.175781 -0.3125,-2.1875 -0.5,-3.03125 -0.15625,-0.644531 -0.375,-1.203125 -0.65625,-1.671875 -0.28125,-0.476562 -0.636719,-1.039062 -1.0625,-1.6875 z m 0,0"
           id="path188" />
      </g>
    </g>
  </g>
  <g
     fill="#ffffff"
     fill-opacity="1"
     id="g194"
     transform="translate(-383.78125,-330.14452)">
    <g
       transform="translate(649.82247,468.59642)"
       id="g193">
      <g
         id="g192">
        <path
           d="M 20.9375,-0.234375 C 20.625,-0.492188 20.429688,-0.765625 20.359375,-1.046875 20.285156,-1.335938 20.25,-1.632812 20.25,-1.9375 c 0,-0.34375 0.02344,-0.703125 0.07813,-1.078125 0.0625,-0.382813 0.109375,-0.765625 0.140625,-1.140625 0.08203,-1.101562 0.128906,-2.300781 0.140625,-3.59375 0.01953,-1.289062 0.08594,-2.601562 0.203125,-3.9375 0.08203,-0.945312 0.148438,-1.867188 0.203125,-2.765625 0.05078,-0.894531 0.07813,-1.78125 0.07813,-2.65625 0,-1.363281 -0.125,-2.625 -0.375,-3.78125 -0.242188,-1.164063 -0.71875,-2.207031 -1.4375,-3.125 -0.6875,-0.257813 -1.335938,-0.390625 -1.9375,-0.390625 -1.074219,0 -1.914062,0.382812 -2.515625,1.140625 -0.605469,0.761719 -1.121094,1.710937 -1.546875,2.84375 -0.304688,0.84375 -0.617188,1.828125 -0.9375,2.953125 -0.324219,1.117188 -0.621094,2.292969 -0.890625,3.53125 -0.261719,1.230469 -0.480469,2.464844 -0.65625,3.703125 -0.167969,1.230469 -0.25,2.359375 -0.25,3.390625 0,0.761719 0.08203,1.542969 0.25,2.34375 0.175781,0.792969 0.265625,1.496094 0.265625,2.109375 0,0.304687 -0.02344,0.53125 -0.0625,0.6875 C 10.8125,-1.054688 10.375,-0.570312 9.6875,-0.25 9.007812,0.0703125 8.289062,0.234375 7.53125,0.234375 c -0.460938,0 -0.917969,-0.058594 -1.375,-0.171875 -0.460938,-0.1132812 -0.855469,-0.304688 -1.1875,-0.578125 0,-3.53125 -0.03125,-7.269531 -0.09375,-11.21875 -0.054688,-3.957031 -0.121094,-7.992187 -0.203125,-12.109375 -0.1875,-0.03125 -0.492187,-0.04687 -0.90625,-0.04687 -0.1875,0 -0.3125,0 -0.375,0 -0.054687,0 -0.089844,0.01172 -0.109375,0.03125 -0.023438,0.01172 -0.0625,0.01563 -0.125,0.01563 -0.054688,0 -0.15625,0 -0.3125,0 -0.53125,0 -0.867188,-0.160156 -1,-0.484375 -0.125,-0.320313 -0.226562,-0.75 -0.296875,-1.28125 0,-0.07031 -0.011719,-0.117187 -0.03125,-0.140625 -0.023437,-0.01953 -0.03125,-0.06641 -0.03125,-0.140625 0,-0.07031 -0.011719,-0.15625 -0.03125,-0.25 -0.023437,-0.101563 -0.03125,-0.191406 -0.03125,-0.265625 0,-1.0625 0.140625,-1.6875 0.421875,-1.875 0.289062,-0.195312 0.875,-0.296875 1.75,-0.296875 H 3.875 c 0.414062,0 0.804688,0.01172 1.171875,0.03125 0.363281,0.02344 0.695313,0.03125 1,0.03125 0.800781,0 1.457031,0.171875 1.96875,0.515625 0.507813,0.34375 0.90625,0.78125 1.1875,1.3125 0.289063,0.53125 0.492187,1.164062 0.609375,1.890625 0.113281,0.71875 0.171875,1.4375 0.171875,2.15625 0,0.273437 0,0.53125 0,0.78125 0,0.242187 -0.023437,0.476563 -0.0625,0.703125 l 0.171875,-0.625 c 0.1875,-0.644531 0.375,-1.300781 0.5625,-1.96875 0.195312,-0.664062 0.398438,-1.285156 0.609375,-1.859375 0.207031,-0.570313 0.414063,-1.054687 0.625,-1.453125 0.207031,-0.394531 0.425781,-0.648438 0.65625,-0.765625 0.71875,-0.414063 1.539063,-0.71875 2.46875,-0.90625 0.9375,-0.195313 1.863281,-0.296875 2.78125,-0.296875 0.71875,0 1.398437,0.04687 2.046875,0.140625 0.644531,0.09375 1.21875,0.21875 1.71875,0.375 0.945312,0.304687 1.734375,0.789063 2.359375,1.453125 0.625,0.667969 1.117187,1.460938 1.484375,2.375 0.363281,0.90625 0.609375,1.914062 0.734375,3.015625 0.132813,1.105469 0.203125,2.246094 0.203125,3.421875 0,2.167969 -0.125,4.335938 -0.375,6.5 -0.242188,2.167969 -0.359375,4.089844 -0.359375,5.765625 v 0.34375 c 0,0.492187 0.0625,1.023437 0.1875,1.59375 C 25.929688,-3.472656 26,-2.960938 26,-2.515625 26,-2.316406 25.960938,-2.101562 25.890625,-1.875 25.628906,-1.226562 25.164062,-0.753906 24.5,-0.453125 23.832031,-0.148438 23.132812,0 22.40625,0 21.84375,0 21.351562,-0.078125 20.9375,-0.234375 Z m 0,0"
           id="path191" />
      </g>
    </g>
  </g>
  <g
     fill="#ffffff"
     fill-opacity="1"
     id="g197"
     transform="translate(-383.78125,-330.14452)">
    <g
       transform="translate(679.3606,468.59642)"
       id="g196">
      <g
         id="g195">
        <path
           d="m 6.84375,-24.296875 c -0.417969,0.04297 -0.820312,0.234375 -1.203125,0.578125 -0.375,0.335938 -0.765625,0.695312 -1.171875,1.078125 -0.398438,0.375 -0.804688,0.71875 -1.21875,1.03125 -0.417969,0.304687 -0.875,0.453125 -1.375,0.453125 -0.605469,0 -1.210938,-0.191406 -1.8125,-0.578125 -0.0820312,-0.375 -0.125,-0.65625 -0.125,-0.84375 0,-0.757813 0.226562,-1.488281 0.6875,-2.1875 0.457031,-0.707031 1.046875,-1.347656 1.765625,-1.921875 0.726563,-0.570312 1.53125,-1.046875 2.40625,-1.421875 0.875,-0.382813 1.707031,-0.613281 2.5,-0.6875 0.070313,0 0.375,0 0.90625,0 0.539063,0 1.125,-0.0078 1.75,-0.03125 0.625,-0.01953 1.191406,-0.03125 1.703125,-0.03125 0.519531,0 0.816406,0 0.890625,0 1.289063,0 2.34375,0.320313 3.15625,0.953125 0.820313,0.625 1.46875,1.433594 1.9375,2.421875 0.476563,0.980469 0.820313,2.089844 1.03125,3.328125 0.207031,1.242188 0.351563,2.484375 0.4375,3.734375 0.03125,0.460937 0.04687,0.90625 0.04687,1.34375 0,0.4375 0,0.867187 0,1.28125 0,1.335937 -0.03125,2.632813 -0.09375,3.890625 -0.05469,1.25 -0.07813,2.5 -0.07813,3.75 0,0.53125 0.0078,1.046875 0.03125,1.546875 0.01953,0.492187 0.05078,0.984375 0.09375,1.484375 0.03125,0.417969 0.113281,0.808594 0.25,1.171875 0.132813,0.355469 0.203125,0.683594 0.203125,0.984375 -0.04297,0.34375 -0.179688,0.6875 -0.40625,1.03125 -0.230469,0.34375 -0.515625,0.652344 -0.859375,0.921875 -0.335937,0.261719 -0.714844,0.480469 -1.140625,0.65625 -0.417969,0.167969 -0.8125,0.25 -1.1875,0.25 -0.460938,0 -0.859375,-0.113281 -1.203125,-0.34375 -0.34375,-0.226563 -0.5625,-0.5625 -0.65625,-1 C 14.015625,-1.890625 13.96875,-2.375 13.96875,-2.90625 v -1.890625 c -0.03125,-1.9375 -0.08984,-3.898437 -0.171875,-5.890625 -0.07422,-2 -0.109375,-4.273438 -0.109375,-6.828125 0,-1.519531 -0.101562,-2.765625 -0.296875,-3.734375 -0.1875,-0.96875 -0.453125,-1.726562 -0.796875,-2.28125 -0.335938,-0.550781 -0.714844,-0.921875 -1.140625,-1.109375 -0.417969,-0.1875 -0.851563,-0.28125 -1.296875,-0.28125 -0.617188,0 -1.21875,0.08984 -1.8125,0.265625 -0.585938,0.167969 -1.085938,0.289062 -1.5,0.359375 z m 0,0"
           id="path194" />
      </g>
    </g>
  </g>
  <g
     fill="#ffffff"
     fill-opacity="1"
     id="g200"
     transform="translate(-383.78125,-330.14452)">
    <g
       transform="translate(702.34103,468.59642)"
       id="g199">
      <g
         id="g198">
        <path
           d="M 0.734375,-9.125 C 0.429688,-9.425781 0.28125,-9.804688 0.28125,-10.265625 c 0,-0.414063 0.128906,-0.832031 0.390625,-1.25 0.269531,-0.414063 0.625,-0.796875 1.0625,-1.140625 0.4375,-0.34375 0.898437,-0.617188 1.390625,-0.828125 0.5,-0.207031 0.976562,-0.3125 1.4375,-0.3125 0.71875,0 1.25,0.242187 1.59375,0.71875 0.34375,0.46875 0.707031,0.933594 1.09375,1.390625 0.414062,0.53125 0.914062,1.105469 1.5,1.71875 0.59375,0.605469 1.210938,1.203125 1.859375,1.796875 0.644531,0.585937 1.28125,1.132813 1.90625,1.640625 0.625,0.511719 1.1875,0.9375 1.6875,1.28125 0,-0.070312 0.0039,-0.15625 0.01563,-0.25 0.01953,-0.09375 0.03125,-0.179688 0.03125,-0.265625 0.195312,-1.59375 0.367188,-3.3125 0.515625,-5.15625 C 14.921875,-12.765625 15,-14.5625 15,-16.3125 c 0,-0.53125 -0.01172,-1.03125 -0.03125,-1.5 -0.02344,-0.476562 -0.04687,-0.945312 -0.07813,-1.40625 -0.08594,-1.101562 -0.414063,-2.148438 -0.984375,-3.140625 -0.5625,-0.988281 -1.28125,-1.75 -2.15625,-2.28125 -1.0625,0.386719 -2.109375,0.578125 -3.140625,0.578125 -0.605469,0 -1.125,-0.09375 -1.5625,-0.28125 -0.4375,-0.195312 -0.679687,-0.539062 -0.71875,-1.03125 0,-0.726562 0.3125,-1.382812 0.9375,-1.96875 0.632813,-0.59375 1.21875,-0.984375 1.75,-1.171875 0.53125,-0.226563 1.164063,-0.398437 1.90625,-0.515625 0.738281,-0.113281 1.488281,-0.171875 2.25,-0.171875 1.21875,0 2.148437,0.117187 2.796875,0.34375 0.53125,0.230469 1.039062,0.621094 1.53125,1.171875 0.5,0.554688 0.945312,1.195312 1.34375,1.921875 0.40625,0.71875 0.738281,1.46875 1,2.25 0.269531,0.773437 0.441406,1.5 0.515625,2.1875 0.03906,0.375 0.06641,0.792969 0.07813,1.25 0.01953,0.460937 0.03125,0.917969 0.03125,1.375 v 1.03125 c -0.03125,1.898437 -0.136719,3.742187 -0.3125,5.53125 -0.167969,1.78125 -0.367188,3.585937 -0.59375,5.40625 -0.07422,0.730469 -0.167969,1.617187 -0.28125,2.65625 -0.117188,1.042969 -0.308594,1.8125 -0.578125,2.3125 -0.34375,0.648437 -0.992187,1.164063 -1.9375,1.546875 -0.949219,0.371094 -1.917969,0.5625 -2.90625,0.5625 -0.71875,0 -1.367187,-0.117188 -1.9375,-0.34375 -1.0625,-0.457031 -2.054687,-1.125 -2.96875,-2 -0.917969,-0.875 -1.8125,-1.707031 -2.6875,-2.5 C 5.316406,-5.34375 4.425781,-6.191406 3.59375,-7.046875 2.757812,-7.898438 1.804688,-8.59375 0.734375,-9.125 Z m 0,0"
           id="path197" />
      </g>
    </g>
  </g>
  <g
     fill="#ffffff"
     fill-opacity="1"
     id="g203"
     transform="translate(-383.78125,-330.14452)">
    <g
       transform="translate(725.66361,468.59642)"
       id="g202">
      <g
         id="g201">
        <path
           d="m 17.046875,-23.84375 c -0.304687,-0.113281 -0.683594,-0.21875 -1.140625,-0.3125 -0.449219,-0.09375 -0.933594,-0.164062 -1.453125,-0.21875 -0.511719,-0.0625 -1.015625,-0.09766 -1.515625,-0.109375 -0.492188,-0.01953 -0.90625,-0.03125 -1.25,-0.03125 -1.292969,0 -2.46875,0.132813 -3.53125,0.390625 0,0.417969 0.101562,0.730469 0.3125,0.9375 0.207031,0.210938 0.347656,0.507812 0.421875,0.890625 -0.03125,0.875 -0.046875,1.828125 -0.046875,2.859375 0,1.023438 0,2.085938 0,3.1875 0,0.835938 0,1.671875 0,2.515625 0,0.835937 0.015625,1.6875 0.046875,2.5625 v 1.640625 c 0,0.804688 0,1.605469 0,2.40625 0,0.792969 0.039063,1.589844 0.125,2.390625 0.03125,0.34375 0.082031,0.6875 0.15625,1.03125 0.082031,0.34375 0.125,0.667969 0.125,0.96875 v 0.28125 C 9.179688,-1.804688 8.769531,-1.222656 8.0625,-0.703125 7.363281,-0.191406 6.613281,0.0625 5.8125,0.0625 5.394531,0.0625 5.003906,-0.015625 4.640625,-0.171875 4.285156,-0.328125 3.957031,-0.570312 3.65625,-0.90625 c 0.070312,-1.789062 0.125,-3.566406 0.15625,-5.328125 0.039062,-1.769531 0.0625,-3.570313 0.0625,-5.40625 0,-1.40625 -0.023438,-2.800781 -0.0625,-4.1875 -0.03125,-1.382813 -0.125,-2.800781 -0.28125,-4.25 -0.304688,-0.07031 -0.601562,-0.132813 -0.890625,-0.1875 C 2.359375,-20.328125 2.082031,-20.40625 1.8125,-20.5 c -0.261719,-0.09375 -0.484375,-0.222656 -0.671875,-0.390625 -0.1875,-0.175781 -0.324219,-0.414063 -0.40625,-0.71875 v -0.234375 c 0,-0.414062 0.207031,-0.945312 0.625,-1.59375 0.425781,-0.644531 0.914063,-1.28125 1.46875,-1.90625 0.550781,-0.632812 1.097656,-1.195312 1.640625,-1.6875 0.550781,-0.5 0.984375,-0.800781 1.296875,-0.90625 0.757813,-0.269531 1.71875,-0.472656 2.875,-0.609375 1.15625,-0.132813 2.34375,-0.203125 3.5625,-0.203125 0.832031,0 1.722656,0.03125 2.671875,0.09375 0.957031,0.05469 1.875,0.15625 2.75,0.3125 0.875,0.15625 1.648438,0.339844 2.328125,0.546875 0.6875,0.210937 1.179687,0.445313 1.484375,0.703125 0.226562,0.230469 0.484375,0.632812 0.765625,1.203125 0.289063,0.574219 0.554687,1.183594 0.796875,1.828125 0.25,0.648438 0.46875,1.292969 0.65625,1.9375 0.195312,0.648438 0.351562,1.199219 0.46875,1.65625 0.257812,1.210938 0.4375,2.558594 0.53125,4.046875 0.101562,1.480469 0.15625,3 0.15625,4.5625 0,1.523437 0.101562,2.8125 0.3125,3.875 0.207031,1.0625 0.3125,2.125 0.3125,3.1875 0,0.15625 -0.01172,0.3125 -0.03125,0.46875 C 25.38281,-4.179688 25.375,-4.03125 25.375,-3.875 c 0,0.148438 0.02344,0.261719 0.07813,0.34375 0.0625,0.074219 0.128906,0.148438 0.203125,0.21875 0.03906,0.117188 0.0625,0.308594 0.0625,0.578125 0,0.417969 -0.125,0.820313 -0.375,1.203125 -0.242188,0.375 -0.542969,0.710938 -0.90625,1 C 24.070317,-0.25 23.660161,-0.0351562 23.20313,0.109375 22.753911,0.265625 22.335943,0.34375 21.95313,0.34375 21.535156,0.34375 21.175781,0.25 20.875,0.0625 20.570312,-0.132812 20.367188,-0.421875 20.265625,-0.796875 20.171875,-1.179688 20.125,-1.597656 20.125,-2.046875 v -2 c 0,-0.269531 -0.01172,-0.535156 -0.03125,-0.796875 -0.01172,-0.269531 -0.01563,-0.554688 -0.01563,-0.859375 -0.04297,-1.675781 -0.09375,-3.378906 -0.15625,-5.109375 -0.05469,-1.726562 -0.183594,-3.390625 -0.390625,-4.984375 -0.210938,-1.59375 -0.507812,-3.082031 -0.890625,-4.46875 -0.375,-1.394531 -0.90625,-2.585937 -1.59375,-3.578125 z m 0,0"
           id="path200" />
      </g>
    </g>
  </g>
  <g
     fill="#ffffff"
     fill-opacity="1"
     id="g206"
     transform="translate(-383.78125,-330.14452)">
    <g
       transform="translate(754.23233,468.59642)"
       id="g205">
      <g
         id="g204">
        <path
           d="m 6.84375,-24.296875 c -0.417969,0.04297 -0.820312,0.234375 -1.203125,0.578125 -0.375,0.335938 -0.765625,0.695312 -1.171875,1.078125 -0.398438,0.375 -0.804688,0.71875 -1.21875,1.03125 -0.417969,0.304687 -0.875,0.453125 -1.375,0.453125 -0.605469,0 -1.210938,-0.191406 -1.8125,-0.578125 -0.0820312,-0.375 -0.125,-0.65625 -0.125,-0.84375 0,-0.757813 0.226562,-1.488281 0.6875,-2.1875 0.457031,-0.707031 1.046875,-1.347656 1.765625,-1.921875 0.726563,-0.570312 1.53125,-1.046875 2.40625,-1.421875 0.875,-0.382813 1.707031,-0.613281 2.5,-0.6875 0.070313,0 0.375,0 0.90625,0 0.539063,0 1.125,-0.0078 1.75,-0.03125 0.625,-0.01953 1.191406,-0.03125 1.703125,-0.03125 0.519531,0 0.816406,0 0.890625,0 1.289063,0 2.34375,0.320313 3.15625,0.953125 0.820313,0.625 1.46875,1.433594 1.9375,2.421875 0.476563,0.980469 0.820313,2.089844 1.03125,3.328125 0.207031,1.242188 0.351563,2.484375 0.4375,3.734375 0.03125,0.460937 0.04687,0.90625 0.04687,1.34375 0,0.4375 0,0.867187 0,1.28125 0,1.335937 -0.03125,2.632813 -0.09375,3.890625 -0.05469,1.25 -0.07813,2.5 -0.07813,3.75 0,0.53125 0.0078,1.046875 0.03125,1.546875 0.01953,0.492187 0.05078,0.984375 0.09375,1.484375 0.03125,0.417969 0.113281,0.808594 0.25,1.171875 0.132813,0.355469 0.203125,0.683594 0.203125,0.984375 -0.04297,0.34375 -0.179688,0.6875 -0.40625,1.03125 -0.230469,0.34375 -0.515625,0.652344 -0.859375,0.921875 -0.335937,0.261719 -0.714844,0.480469 -1.140625,0.65625 -0.417969,0.167969 -0.8125,0.25 -1.1875,0.25 -0.460938,0 -0.859375,-0.113281 -1.203125,-0.34375 -0.34375,-0.226563 -0.5625,-0.5625 -0.65625,-1 C 14.015625,-1.890625 13.96875,-2.375 13.96875,-2.90625 v -1.890625 c -0.03125,-1.9375 -0.08984,-3.898437 -0.171875,-5.890625 -0.07422,-2 -0.109375,-4.273438 -0.109375,-6.828125 0,-1.519531 -0.101562,-2.765625 -0.296875,-3.734375 -0.1875,-0.96875 -0.453125,-1.726562 -0.796875,-2.28125 -0.335938,-0.550781 -0.714844,-0.921875 -1.140625,-1.109375 -0.417969,-0.1875 -0.851563,-0.28125 -1.296875,-0.28125 -0.617188,0 -1.21875,0.08984 -1.8125,0.265625 -0.585938,0.167969 -1.085938,0.289062 -1.5,0.359375 z m 0,0"
           id="path203" />
      </g>
    </g>
  </g>
  <g
     fill="#ffffff"
     fill-opacity="1"
     id="g209"
     transform="translate(-383.78125,-330.14452)">
    <g
       transform="translate(777.21276,468.59642)"
       id="g208">
      <g
         id="g207">
        <path
           d="M 16.203125,-6.109375 C 15.972656,-7.285156 15.5625,-8.28125 14.96875,-9.09375 c -0.585938,-0.820312 -1.296875,-1.515625 -2.140625,-2.078125 -0.761719,-0.5 -1.589844,-0.945313 -2.484375,-1.34375 -0.886719,-0.394531 -1.777344,-0.800781 -2.671875,-1.21875 -0.898437,-0.425781 -1.726563,-0.875 -2.484375,-1.34375 -0.761719,-0.476563 -1.371094,-1.0625 -1.828125,-1.75 -0.417969,-0.601563 -0.625,-1.378906 -0.625,-2.328125 v -1.546875 c 0,-0.414063 0,-0.820313 0,-1.21875 0,-0.40625 0.035156,-0.816406 0.109375,-1.234375 0.113281,-1.0625 0.304688,-1.859375 0.578125,-2.390625 C 3.691406,-26.078125 4.09375,-26.6875 4.625,-27.375 c 0.332031,-0.414062 0.785156,-0.738281 1.359375,-0.96875 0.570313,-0.226562 1.195313,-0.390625 1.875,-0.484375 0.6875,-0.09375 1.363281,-0.15625 2.03125,-0.1875 0.664063,-0.03906 1.265625,-0.101563 1.796875,-0.1875 0.1875,-0.03125 0.382812,-0.04687 0.59375,-0.04687 0.21875,0 0.441406,0 0.671875,0 0.71875,0 1.515625,0.05859 2.390625,0.171875 0.875,0.105469 1.707031,0.273437 2.5,0.5 0.800781,0.230469 1.476562,0.507813 2.03125,0.828125 0.550781,0.324219 0.863281,0.679688 0.9375,1.0625 0.03906,0.148438 0.0625,0.375 0.0625,0.6875 0,0.53125 -0.125,0.960938 -0.375,1.28125 -0.25,0.324219 -0.574219,0.574219 -0.96875,0.75 -0.398438,0.167969 -0.84375,0.289062 -1.34375,0.359375 -0.492188,0.07422 -0.964844,0.132813 -1.421875,0.171875 -0.230469,-0.113281 -0.554687,-0.253906 -0.96875,-0.421875 -0.417969,-0.175781 -0.867187,-0.335937 -1.34375,-0.484375 -0.46875,-0.15625 -0.945313,-0.28125 -1.421875,-0.375 -0.480469,-0.09375 -0.886719,-0.140625 -1.21875,-0.140625 -0.117188,0 -0.328125,0.01172 -0.640625,0.03125 -0.304687,0.01172 -0.625,0.02734 -0.96875,0.04687 -0.34375,0.02344 -0.65625,0.05469 -0.9375,0.09375 -0.28125,0.03125 -0.480469,0.07031 -0.59375,0.109375 -0.1875,0.574219 -0.40625,1.164063 -0.65625,1.765625 -0.25,0.605469 -0.375,1.25 -0.375,1.9375 0,0.117188 0,0.242188 0,0.375 0,0.136719 0.019531,0.277344 0.0625,0.421875 0.03125,0.34375 0.21875,0.679687 0.5625,1 0.34375,0.324219 0.742187,0.632813 1.203125,0.921875 0.457031,0.28125 0.929688,0.558594 1.421875,0.828125 0.5,0.261719 0.957031,0.484375 1.375,0.671875 0.90625,0.417969 1.863281,0.898438 2.875,1.4375 1.007813,0.53125 1.941406,1.140625 2.796875,1.828125 0.851562,0.679687 1.59375,1.464844 2.21875,2.359375 0.625,0.898438 0.992188,1.933594 1.109375,3.109375 0.03906,0.148437 0.0625,0.289063 0.0625,0.421875 0,0.136719 0,0.261719 0,0.375 0,1.0625 -0.210937,1.976562 -0.625,2.734375 -0.417969,0.761719 -0.835937,1.601563 -1.25,2.515625 C 18.609375,-1 17.4375,-0.351562 15.9375,0.0625 14.4375,0.476562 12.832031,0.6875 11.125,0.6875 9.90625,0.6875 8.695312,0.570312 7.5,0.34375 6.300781,0.113281 5.242188,-0.242188 4.328125,-0.734375 c -0.53125,-0.3125 -1.085937,-0.75 -1.65625,-1.3125 -0.5625,-0.570313 -0.867187,-1.125 -0.90625,-1.65625 0,-0.34375 0.101563,-0.664063 0.3125,-0.96875 C 2.285156,-4.972656 2.550781,-5.25 2.875,-5.5 c 0.320312,-0.25 0.671875,-0.4375 1.046875,-0.5625 0.382813,-0.132812 0.75,-0.203125 1.09375,-0.203125 0.53125,0.074219 1.0625,0.339844 1.59375,0.796875 0.53125,0.449219 1.125,0.789062 1.78125,1.015625 1.289063,0.53125 2.617187,0.796875 3.984375,0.796875 0.945312,0 1.769531,-0.1875 2.46875,-0.5625 0.707031,-0.382812 1.160156,-1.015625 1.359375,-1.890625 z m 0,0"
           id="path206" />
      </g>
    </g>
  </g>
  <g
     fill="#ffffff"
     fill-opacity="1"
     id="g212"
     transform="translate(-383.78125,-330.14452)">
    <g
       transform="translate(801.10558,468.59642)"
       id="g211">
      <g
         id="g210">
        <path
           d="m 21.15625,-26.515625 c 0.414062,0.375 0.773438,0.78125 1.078125,1.21875 0.3125,0.4375 0.582031,0.851563 0.8125,1.234375 0.144531,0.261719 0.3125,0.585938 0.5,0.96875 0.195313,0.375 0.378906,0.765625 0.546875,1.171875 0.175781,0.398437 0.328125,0.777344 0.453125,1.140625 0.132813,0.355469 0.238281,0.667969 0.3125,0.9375 0.03906,0.230469 0.07031,0.460938 0.09375,0.6875 0.01953,0.230469 0.03125,0.453125 0.03125,0.671875 0,0.574219 -0.03125,1.15625 -0.09375,1.75 -0.05469,0.585937 -0.07813,1.183594 -0.07813,1.796875 0,0.648438 -0.01172,1.28125 -0.03125,1.90625 -0.02344,0.625 -0.03125,1.261719 -0.03125,1.90625 0,0.5 0.0078,0.992188 0.03125,1.46875 0.01953,0.46875 0.04687,0.933594 0.07813,1.390625 0.08203,1.21875 0.1875,2.324219 0.3125,3.3125 0.132813,0.980469 0.222656,2.117187 0.265625,3.40625 -0.273438,0.5 -0.761719,0.921875 -1.46875,1.265625 -0.699219,0.3398438 -1.386719,0.515625 -2.0625,0.515625 -0.730469,0 -1.28125,-0.2148438 -1.65625,-0.640625 -0.273438,-0.300781 -0.453125,-0.773438 -0.546875,-1.421875 -0.09375,-0.644531 -0.140625,-1.363281 -0.140625,-2.15625 0,-0.875 0.02344,-1.769531 0.07813,-2.6875 0.0625,-0.914063 0.09375,-1.753906 0.09375,-2.515625 0,-0.226562 0,-0.4375 0,-0.625 0,-0.1875 -0.02344,-0.375 -0.0625,-0.5625 -0.34375,-0.15625 -0.792969,-0.304688 -1.34375,-0.453125 -0.542969,-0.15625 -1.148437,-0.289063 -1.8125,-0.40625 -0.667969,-0.113281 -1.34375,-0.207031 -2.03125,-0.28125 -0.6875,-0.08203 -1.3125,-0.125 -1.875,-0.125 -1.21875,0 -2.289063,0.21875 -3.203125,0.65625 -0.90625,0.4375 -1.359375,1.230469 -1.359375,2.375 0,0.304687 0.015625,0.546875 0.046875,0.734375 0.082031,0.5 0.320312,1.015625 0.71875,1.546875 0.394531,0.53125 0.859375,0.96875 1.390625,1.3125 0.414063,0.261719 0.851563,0.46875 1.3125,0.625 0.457031,0.15625 0.882813,0.320313 1.28125,0.484375 0.40625,0.167969 0.726563,0.386719 0.96875,0.65625 0.25,0.273438 0.375,0.652344 0.375,1.140625 v 0.28125 c -0.07422,0.648437 -0.476563,1.183594 -1.203125,1.609375 -0.71875,0.414062 -1.476562,0.625 -2.265625,0.625 -0.199219,0 -0.484375,-0.042969 -0.859375,-0.125 -0.917969,-0.1875 -1.804688,-0.523438 -2.65625,-1.015625 -0.855469,-0.5 -1.625,-1.097656 -2.3125,-1.796875 -0.679688,-0.707031 -1.21875,-1.5 -1.625,-2.375 C 2.820312,-5.78125 2.625,-6.710938 2.625,-7.703125 v -0.28125 c 0.039062,-1.476563 0.375,-2.722656 1,-3.734375 0.625,-1.007812 1.429688,-1.828125 2.421875,-2.453125 0.988281,-0.625 2.144531,-1.066406 3.46875,-1.328125 1.332031,-0.269531 2.742187,-0.40625 4.234375,-0.40625 0.757812,0 1.648438,0.03125 2.671875,0.09375 1.03125,0.05469 1.925781,0.136719 2.6875,0.25 v -0.40625 c 0,-2.46875 -0.496094,-4.40625 -1.484375,-5.8125 -0.992188,-1.40625 -2.546875,-2.300781 -4.671875,-2.6875 -0.199219,-0.03125 -0.46875,-0.04687 -0.8125,-0.04687 -0.335937,0 -0.578125,0 -0.734375,0 -0.648438,0 -1.234375,0.09375 -1.765625,0.28125 -0.53125,0.1875 -1.058594,0.40625 -1.578125,0.65625 -0.511719,0.242187 -1.023438,0.460937 -1.53125,0.65625 -0.511719,0.1875 -1.054688,0.28125 -1.625,0.28125 -0.71875,0 -1.5,-0.226563 -2.34375,-0.6875 v -1.828125 c 1.101562,-0.832031 2.234375,-1.582031 3.390625,-2.25 1.164063,-0.664062 2.582031,-1.09375 4.25,-1.28125 h 0.578125 c 0.488281,0 0.972656,0.04297 1.453125,0.125 0.476563,0.07422 0.960937,0.109375 1.453125,0.109375 0.113281,0 0.460938,0.03125 1.046875,0.09375 0.59375,0.05469 1.28125,0.15625 2.0625,0.3125 0.78125,0.148437 1.566406,0.34375 2.359375,0.59375 0.800781,0.242187 1.46875,0.554687 2,0.9375 z m 0,0"
           id="path209" />
      </g>
    </g>
  </g>
  <g
     fill="#ffffff"
     fill-opacity="1"
     id="g215"
     transform="translate(-383.78125,-330.14452)">
    <g
       transform="translate(829.38919,468.59642)"
       id="g214">
      <g
         id="g213">
        <path
           d="M 0.734375,-9.125 C 0.429688,-9.425781 0.28125,-9.804688 0.28125,-10.265625 c 0,-0.414063 0.128906,-0.832031 0.390625,-1.25 0.269531,-0.414063 0.625,-0.796875 1.0625,-1.140625 0.4375,-0.34375 0.898437,-0.617188 1.390625,-0.828125 0.5,-0.207031 0.976562,-0.3125 1.4375,-0.3125 0.71875,0 1.25,0.242187 1.59375,0.71875 0.34375,0.46875 0.707031,0.933594 1.09375,1.390625 0.414062,0.53125 0.914062,1.105469 1.5,1.71875 0.59375,0.605469 1.210938,1.203125 1.859375,1.796875 0.644531,0.585937 1.28125,1.132813 1.90625,1.640625 0.625,0.511719 1.1875,0.9375 1.6875,1.28125 0,-0.070312 0.0039,-0.15625 0.01563,-0.25 0.01953,-0.09375 0.03125,-0.179688 0.03125,-0.265625 0.195312,-1.59375 0.367188,-3.3125 0.515625,-5.15625 C 14.921875,-12.765625 15,-14.5625 15,-16.3125 c 0,-0.53125 -0.01172,-1.03125 -0.03125,-1.5 -0.02344,-0.476562 -0.04687,-0.945312 -0.07813,-1.40625 -0.08594,-1.101562 -0.414063,-2.148438 -0.984375,-3.140625 -0.5625,-0.988281 -1.28125,-1.75 -2.15625,-2.28125 -1.0625,0.386719 -2.109375,0.578125 -3.140625,0.578125 -0.605469,0 -1.125,-0.09375 -1.5625,-0.28125 -0.4375,-0.195312 -0.679687,-0.539062 -0.71875,-1.03125 0,-0.726562 0.3125,-1.382812 0.9375,-1.96875 0.632813,-0.59375 1.21875,-0.984375 1.75,-1.171875 0.53125,-0.226563 1.164063,-0.398437 1.90625,-0.515625 0.738281,-0.113281 1.488281,-0.171875 2.25,-0.171875 1.21875,0 2.148437,0.117187 2.796875,0.34375 0.53125,0.230469 1.039062,0.621094 1.53125,1.171875 0.5,0.554688 0.945312,1.195312 1.34375,1.921875 0.40625,0.71875 0.738281,1.46875 1,2.25 0.269531,0.773437 0.441406,1.5 0.515625,2.1875 0.03906,0.375 0.06641,0.792969 0.07813,1.25 0.01953,0.460937 0.03125,0.917969 0.03125,1.375 v 1.03125 c -0.03125,1.898437 -0.136719,3.742187 -0.3125,5.53125 -0.167969,1.78125 -0.367188,3.585937 -0.59375,5.40625 -0.07422,0.730469 -0.167969,1.617187 -0.28125,2.65625 -0.117188,1.042969 -0.308594,1.8125 -0.578125,2.3125 -0.34375,0.648437 -0.992187,1.164063 -1.9375,1.546875 -0.949219,0.371094 -1.917969,0.5625 -2.90625,0.5625 -0.71875,0 -1.367187,-0.117188 -1.9375,-0.34375 -1.0625,-0.457031 -2.054687,-1.125 -2.96875,-2 -0.917969,-0.875 -1.8125,-1.707031 -2.6875,-2.5 C 5.316406,-5.34375 4.425781,-6.191406 3.59375,-7.046875 2.757812,-7.898438 1.804688,-8.59375 0.734375,-9.125 Z m 0,0"
           id="path212" />
      </g>
    </g>
  </g>
  <g
     fill="#ffffff"
     fill-opacity="1"
     id="g218"
     transform="translate(-383.78125,-330.14452)">
    <g
       transform="translate(852.71175,468.59642)"
       id="g217">
      <g
         id="g216">
        <path
           d="m 28,-29.421875 c 0.03906,0.117187 0.0625,0.265625 0.0625,0.453125 0,0.304688 -0.07813,0.589844 -0.234375,0.859375 -0.1875,0.304687 -0.386719,0.589844 -0.59375,0.859375 -0.210937,0.261719 -0.429687,0.542969 -0.65625,0.84375 -0.1875,0.230469 -0.324219,0.390625 -0.40625,0.484375 -0.07422,0.09375 -0.140625,0.171875 -0.203125,0.234375 -0.05469,0.05469 -0.121094,0.125 -0.203125,0.21875 -0.07422,0.09375 -0.203125,0.21875 -0.390625,0.375 -0.230469,0.273438 -0.527344,0.5 -0.890625,0.6875 -0.355469,0.1875 -0.726563,0.375 -1.109375,0.5625 l -0.15625,0.125 c 0.300781,0.5625 0.617188,1.234375 0.953125,2.015625 0.34375,0.78125 0.570313,1.402344 0.6875,1.859375 0.03906,0.230469 0.07031,0.460938 0.09375,0.6875 0.01953,0.230469 0.03125,0.453125 0.03125,0.671875 0,0.574219 -0.03125,1.15625 -0.09375,1.75 -0.05469,0.585937 -0.07813,1.183594 -0.07813,1.796875 0,0.648438 -0.01172,1.28125 -0.03125,1.90625 -0.02344,0.625 -0.03125,1.261719 -0.03125,1.90625 0,0.5 0.0078,0.992188 0.03125,1.46875 0.01953,0.46875 0.04687,0.933594 0.07813,1.390625 0.08203,1.21875 0.1875,2.324219 0.3125,3.3125 0.132813,0.980469 0.222656,2.117187 0.265625,3.40625 -0.273438,0.5 -0.761719,0.921875 -1.46875,1.265625 -0.699219,0.3398438 -1.386719,0.515625 -2.0625,0.515625 -0.730469,0 -1.28125,-0.2148438 -1.65625,-0.640625 -0.273438,-0.300781 -0.453125,-0.773438 -0.546875,-1.421875 -0.09375,-0.644531 -0.140625,-1.363281 -0.140625,-2.15625 0,-0.875 0.02344,-1.769531 0.07813,-2.6875 0.0625,-0.914063 0.09375,-1.753906 0.09375,-2.515625 0,-0.226562 0,-0.4375 0,-0.625 0,-0.1875 -0.02344,-0.375 -0.0625,-0.5625 -0.34375,-0.15625 -0.792969,-0.304688 -1.34375,-0.453125 -0.542969,-0.15625 -1.148437,-0.289063 -1.8125,-0.40625 -0.667969,-0.113281 -1.34375,-0.207031 -2.03125,-0.28125 -0.6875,-0.08203 -1.3125,-0.125 -1.875,-0.125 -1.21875,0 -2.289063,0.21875 -3.203125,0.65625 -0.90625,0.4375 -1.359375,1.230469 -1.359375,2.375 0,0.304687 0.015625,0.546875 0.046875,0.734375 0.082031,0.5 0.320312,1.015625 0.71875,1.546875 0.394531,0.53125 0.859375,0.96875 1.390625,1.3125 0.414063,0.261719 0.851563,0.46875 1.3125,0.625 0.457031,0.15625 0.882813,0.320313 1.28125,0.484375 0.40625,0.167969 0.726563,0.386719 0.96875,0.65625 0.25,0.273438 0.375,0.652344 0.375,1.140625 v 0.28125 c -0.07422,0.648437 -0.476563,1.183594 -1.203125,1.609375 -0.71875,0.414062 -1.476562,0.625 -2.265625,0.625 -0.199219,0 -0.484375,-0.042969 -0.859375,-0.125 -0.917969,-0.1875 -1.804688,-0.523438 -2.65625,-1.015625 -0.855469,-0.5 -1.625,-1.097656 -2.3125,-1.796875 -0.679688,-0.707031 -1.21875,-1.5 -1.625,-2.375 C 2.820312,-5.78125 2.625,-6.710938 2.625,-7.703125 v -0.28125 c 0.039062,-1.476563 0.375,-2.722656 1,-3.734375 0.625,-1.007812 1.429688,-1.828125 2.421875,-2.453125 0.988281,-0.625 2.144531,-1.066406 3.46875,-1.328125 1.332031,-0.269531 2.742187,-0.40625 4.234375,-0.40625 0.757812,0 1.648438,0.03125 2.671875,0.09375 1.03125,0.05469 1.925781,0.136719 2.6875,0.25 v -0.40625 c 0,-2.46875 -0.496094,-4.40625 -1.484375,-5.8125 -0.992188,-1.40625 -2.546875,-2.300781 -4.671875,-2.6875 -0.199219,-0.03125 -0.46875,-0.04687 -0.8125,-0.04687 -0.335937,0 -0.578125,0 -0.734375,0 -0.648438,0 -1.234375,0.09375 -1.765625,0.28125 -0.53125,0.1875 -1.058594,0.40625 -1.578125,0.65625 -0.511719,0.242187 -1.023438,0.460937 -1.53125,0.65625 -0.511719,0.1875 -1.054688,0.28125 -1.625,0.28125 -0.71875,0 -1.5,-0.226563 -2.34375,-0.6875 v -1.828125 c 1.101562,-0.832031 2.234375,-1.582031 3.390625,-2.25 1.164063,-0.664062 2.582031,-1.09375 4.25,-1.28125 h 0.578125 c 0.488281,0 0.972656,0.04297 1.453125,0.125 0.476563,0.07422 0.960937,0.109375 1.453125,0.109375 0.113281,0 0.378906,0.02344 0.796875,0.0625 0.414063,0.03125 0.925781,0.09375 1.53125,0.1875 0.613281,0.09375 1.257813,0.230469 1.9375,0.40625 0.6875,0.167969 1.316406,0.367187 1.890625,0.59375 0.226562,-0.15625 0.398438,-0.289063 0.515625,-0.40625 0.34375,-0.332031 0.628906,-0.648437 0.859375,-0.953125 0.226562,-0.3125 0.453125,-0.609375 0.671875,-0.890625 0.226563,-0.289063 0.46875,-0.554687 0.71875,-0.796875 0.25,-0.25 0.582031,-0.488281 1,-0.71875 0.1875,-0.15625 0.53125,-0.234375 1.03125,-0.234375 0.757813,0 1.519531,0.195313 2.28125,0.578125 0.601563,0.304688 0.960937,0.703125 1.078125,1.203125 z m 0,0"
           id="path215" />
      </g>
    </g>
  </g>
  <g
     fill="#ffffff"
     fill-opacity="1"
     id="g221"
     transform="translate(-383.78125,-330.14452)">
    <g
       transform="translate(880.99536,468.59642)"
       id="g220">
      <g
         id="g219">
        <path
           d="m -3.9375,-37.703125 c 0,0.273437 0.011719,0.542969 0.03125,0.8125 0.023438,0.261719 0.03125,0.542969 0.03125,0.84375 0,0.1875 -0.015625,0.398437 -0.046875,0.625 -0.039063,0.230469 -0.117187,0.496094 -0.234375,0.796875 -0.644531,0.429688 -1.414062,0.726562 -2.3125,0.890625 -0.894531,0.167969 -1.859375,0.25 -2.890625,0.25 -1.363281,0 -2.785156,0.01172 -4.265625,0.03125 -1.488281,0.02344 -2.953125,0.03125 -4.390625,0.03125 H -18.875 c -0.6875,0 -1.265625,0.02344 -1.734375,0.0625 -0.476563,0.03125 -0.9375,0.07031 -1.375,0.109375 -0.4375,0.04297 -0.863281,0.07422 -1.28125,0.09375 -0.414063,0.01172 -0.910156,0.01563 -1.484375,0.01563 -0.53125,0 -1.0625,-0.04687 -1.59375,-0.140625 -0.53125,-0.09375 -1.046875,-0.269531 -1.546875,-0.53125 -0.113281,-0.457031 -0.171875,-0.878906 -0.171875,-1.265625 0,-0.832031 0.183594,-1.457031 0.546875,-1.875 0.367187,-0.414063 0.859375,-0.707031 1.484375,-0.875 0.625,-0.175781 1.367188,-0.273437 2.21875,-0.296875 0.855469,-0.01953 1.796875,-0.06641 2.828125,-0.140625 0.605469,-0.03906 1.230469,-0.06641 1.875,-0.07813 0.648437,-0.01953 1.3125,-0.03125 2,-0.03125 0.992187,0 2,0.02344 3.03125,0.0625 1.023437,0.03125 2.085937,0.08594 3.1875,0.15625 l 1.703125,0.109375 c 0.042969,-0.144531 0.0625,-0.3125 0.0625,-0.5 0,-0.195313 0,-0.390625 0,-0.578125 0,-0.34375 -0.019531,-0.53125 -0.0625,-0.5625 -0.03125,-0.113281 -0.046875,-0.304688 -0.046875,-0.578125 0.03125,-0.757813 0.421875,-1.253906 1.171875,-1.484375 0.742188,-0.226562 1.507812,-0.34375 2.296875,-0.34375 0.429687,0 0.792969,0.101562 1.09375,0.296875 0.304687,0.1875 0.5,0.476563 0.59375,0.859375 0.09375,0.375 0.140625,0.792969 0.140625,1.25 z m 0,0"
           id="path218" />
      </g>
    </g>
  </g>
  <g
     fill="#ffffff"
     fill-opacity="1"
     id="g224"
     transform="translate(-383.78125,-330.14452)">
    <g
       transform="translate(880.99536,468.59642)"
       id="g223">
      <g
         id="g222">
        <path
           d="m 20.25,-23.09375 c 0.07031,-0.382812 0.109375,-0.726562 0.109375,-1.03125 0,-0.375 -0.02344,-0.75 -0.0625,-1.125 -0.03125,-0.382812 -0.04687,-0.734375 -0.04687,-1.046875 0,-0.1875 0.03516,-0.394531 0.109375,-0.625 0.269531,-0.644531 0.734375,-1.117187 1.390625,-1.421875 0.664062,-0.300781 1.363281,-0.453125 2.09375,-0.453125 0.5625,0 1.054688,0.07422 1.484375,0.21875 0.300781,0.273437 0.488281,0.554687 0.5625,0.84375 0.07031,0.28125 0.109375,0.574219 0.109375,0.875 0,0.34375 -0.03125,0.710937 -0.09375,1.09375 -0.05469,0.375 -0.09375,0.75 -0.125,1.125 -0.04297,0.417969 -0.07422,0.867187 -0.09375,1.34375 -0.02344,0.480469 -0.03125,0.964844 -0.03125,1.453125 0,0.761719 0.01953,1.542969 0.0625,2.34375 0.03906,0.792969 0.09766,1.589844 0.171875,2.390625 V -0.6875 c -0.34375,0.273438 -0.605469,0.453125 -0.78125,0.546875 C 24.941406,-0.046875 24.632812,0 24.1875,0 c -0.761719,0 -1.429688,-0.148438 -2,-0.453125 -0.574219,-0.300781 -0.953125,-0.773437 -1.140625,-1.421875 -0.04297,-0.15625 -0.0625,-0.382812 -0.0625,-0.6875 0,-0.34375 0.0078,-0.800781 0.03125,-1.375 0.01953,-0.570312 0.03125,-0.953125 0.03125,-1.140625 0,-0.070313 -0.01172,-0.164063 -0.03125,-0.28125 -0.02344,-0.113281 -0.03125,-0.207031 -0.03125,-0.28125 v -0.34375 c 0,-0.039063 -0.01172,-0.070313 -0.03125,-0.09375 C 20.941406,-6.097656 20.9375,-6.125 20.9375,-6.15625 c 0,-0.113281 -0.02344,-0.207031 -0.0625,-0.28125 -0.617188,2.398438 -1.589844,4.109375 -2.921875,5.140625 -1.324219,1.023437 -3.125,1.53125 -5.40625,1.53125 -0.71875,0 -1.402344,-0.054687 -2.046875,-0.15625 C 9.851562,-0.0117188 9.28125,-0.132812 8.78125,-0.28125 7.789062,-0.582031 6.988281,-1.066406 6.375,-1.734375 5.769531,-2.398438 5.285156,-3.1875 4.921875,-4.09375 4.566406,-5.007812 4.320312,-6.019531 4.1875,-7.125 4.050781,-8.226562 3.984375,-9.367188 3.984375,-10.546875 c 0,-0.988281 0.035156,-1.988281 0.109375,-3 0.082031,-1.007813 0.160156,-2.003906 0.234375,-2.984375 L 4.5,-19.390625 c 0,-0.15625 0.00781,-0.285156 0.03125,-0.390625 0.019531,-0.113281 0.03125,-0.25 0.03125,-0.40625 0,-0.644531 -0.046875,-1.289062 -0.140625,-1.9375 -0.09375,-0.644531 -0.21875,-1.195312 -0.375,-1.65625 -0.304687,-0.07031 -0.617187,-0.128906 -0.9375,-0.171875 C 2.785156,-23.992188 2.476562,-24.0625 2.1875,-24.15625 1.90625,-24.25 1.660156,-24.367188 1.453125,-24.515625 c -0.210937,-0.15625 -0.371094,-0.382813 -0.484375,-0.6875 -0.074219,-0.226563 -0.109375,-0.398437 -0.109375,-0.515625 0,-0.5 0.160156,-0.972656 0.484375,-1.421875 0.320312,-0.457031 0.671875,-0.800781 1.046875,-1.03125 C 3.003906,-28.472656 3.707031,-28.625 4.5,-28.625 c 0.875,0 1.738281,0.140625 2.59375,0.421875 0.863281,0.28125 1.445312,0.578125 1.75,0.890625 0.1875,0.230469 0.363281,0.542969 0.53125,0.9375 0.175781,0.398438 0.320312,0.84375 0.4375,1.34375 0.113281,0.492188 0.207031,1 0.28125,1.53125 0.07031,0.53125 0.109375,1.046875 0.109375,1.546875 -0.03125,0.460937 -0.105469,1.171875 -0.21875,2.140625 -0.117187,0.96875 -0.230469,1.984375 -0.34375,3.046875 -0.117187,1.0625 -0.214844,2.074219 -0.296875,3.03125 -0.074219,0.949219 -0.109375,1.632813 -0.109375,2.046875 0,1.367188 0.125,2.632812 0.375,3.796875 0.25,1.15625 0.734375,2.1875 1.453125,3.09375 0.6875,0.273437 1.332031,0.40625 1.9375,0.40625 0.988281,0 1.863281,-0.300781 2.625,-0.90625 0.757812,-0.613281 1.414062,-1.421875 1.96875,-2.421875 0.550781,-1.007812 1,-2.140625 1.34375,-3.390625 0.34375,-1.257813 0.617188,-2.535156 0.828125,-3.828125 0.207031,-1.289062 0.347656,-2.535156 0.421875,-3.734375 0.07031,-1.195313 0.109375,-2.253906 0.109375,-3.171875 z m 0,0"
           id="path221" />
      </g>
    </g>
  </g>
  <g
     fill="#ffffff"
     fill-opacity="1"
     id="g231"
     transform="translate(-383.78125,-330.14452)">
    <g
       transform="translate(910.59051,468.59642)"
       id="g226">
      <g
         id="g225">
        <path
           d="m -2.625,-40.484375 c 0,0.90625 -0.171875,1.789063 -0.515625,2.640625 -0.34375,0.855469 -0.796875,1.605469 -1.359375,2.25 -0.570312,0.648438 -1.226562,1.171875 -1.96875,1.578125 -0.738281,0.398437 -1.507812,0.59375 -2.3125,0.59375 -0.382812,0 -0.8125,-0.01563 -1.28125,-0.04687 -0.476562,-0.03906 -0.925781,-0.117188 -1.34375,-0.234375 -0.414062,-0.113281 -0.800781,-0.285156 -1.15625,-0.515625 -0.363281,-0.226562 -0.625,-0.53125 -0.78125,-0.90625 -0.1875,-0.425781 -0.328125,-0.910156 -0.421875,-1.453125 -0.101563,-0.550781 -0.15625,-1.132813 -0.15625,-1.75 0,-1.21875 0.117187,-2.148437 0.34375,-2.796875 0.230469,-0.644531 0.667969,-1.328125 1.3125,-2.046875 0.648437,-0.71875 1.34375,-1.21875 2.09375,-1.5 0.742187,-0.289063 1.585937,-0.4375 2.53125,-0.4375 1.335937,0 2.507813,0.414063 3.515625,1.234375 1,0.8125 1.5,1.945312 1.5,3.390625 z m -5.765625,-0.75 c -0.414063,0 -0.734375,0.136719 -0.953125,0.40625 -0.226562,0.261719 -0.34375,0.714844 -0.34375,1.359375 0,1.03125 0.136719,1.636719 0.40625,1.8125 0.261719,0.167969 0.542969,0.25 0.84375,0.25 0.417969,0 0.730469,-0.125 0.9375,-0.375 0.210938,-0.25 0.3125,-0.523438 0.3125,-0.828125 v -0.859375 c 0,-0.414062 -0.117188,-0.8125 -0.359375,-1.1875 -0.25,-0.382812 -0.53125,-0.578125 -0.84375,-0.578125 z m 0,0"
           id="path224" />
      </g>
    </g>
    <g
       transform="translate(910.59051,468.59642)"
       id="g228">
      <g
         id="g227">
        <path
           d="m -15.515625,-47.171875 c 0,-0.445313 0.04297,-0.84375 0.125,-1.1875 0.07422,-0.34375 0.15625,-0.664063 0.25,-0.96875 0.09375,-0.300781 0.1875,-0.632813 0.28125,-1 0.09375,-0.363281 0.140625,-0.8125 0.140625,-1.34375 -0.644531,-0.113281 -1.25,-0.367187 -1.8125,-0.765625 -0.570312,-0.394531 -0.859375,-0.878906 -0.859375,-1.453125 0,-0.457031 0.246094,-0.929687 0.734375,-1.421875 0.386719,-0.382812 0.828125,-0.648438 1.328125,-0.796875 0.492187,-0.15625 1.015625,-0.234375 1.578125,-0.234375 0.574219,0 1.148438,0.08984 1.71875,0.265625 0.574219,0.167969 1.089844,0.402344 1.546875,0.703125 0.449219,0.304688 0.820313,0.671875 1.109375,1.109375 0.28125,0.4375 0.421875,0.945313 0.421875,1.515625 0,0.71875 -0.265625,1.480469 -0.796875,2.28125 h 0.5625 c 1.105469,0 2.03125,-0.226562 2.78125,-0.6875 0.742188,-0.457031 1.453125,-0.960938 2.140625,-1.515625 0.679687,-0.550781 1.398437,-1.050781 2.15625,-1.5 0.761719,-0.457031 1.730469,-0.6875 2.90625,-0.6875 h 0.28125 c 0.84375,0.53125 1.265625,1.121094 1.265625,1.765625 0,0.375 -0.125,0.734375 -0.375,1.078125 -0.25,0.34375 -0.558594,0.679687 -0.921875,1 -0.355469,0.324219 -0.75,0.640625 -1.1875,0.953125 -0.4375,0.304688 -0.847656,0.5625 -1.234375,0.78125 l -0.21875,0.125 c -0.613281,0.375 -1.328125,0.777344 -2.140625,1.203125 -0.820313,0.417969 -1.695313,0.808594 -2.625,1.171875 -0.925781,0.355469 -1.894531,0.648438 -2.90625,0.875 -1.007813,0.230469 -1.988281,0.34375 -2.9375,0.34375 -0.757813,0 -1.335937,-0.09375 -1.734375,-0.28125 -0.40625,-0.195312 -0.929688,-0.503906 -1.578125,-0.921875 z m 0,0"
           id="path226" />
      </g>
    </g>
    <g
       transform="translate(910.59051,468.59642)"
       id="g230">
      <g
         id="g229">
        <path
           d="m 6.84375,-24.296875 c -0.417969,0.04297 -0.820312,0.234375 -1.203125,0.578125 -0.375,0.335938 -0.765625,0.695312 -1.171875,1.078125 -0.398438,0.375 -0.804688,0.71875 -1.21875,1.03125 -0.417969,0.304687 -0.875,0.453125 -1.375,0.453125 -0.605469,0 -1.210938,-0.191406 -1.8125,-0.578125 -0.0820312,-0.375 -0.125,-0.65625 -0.125,-0.84375 0,-0.757813 0.226562,-1.488281 0.6875,-2.1875 0.457031,-0.707031 1.046875,-1.347656 1.765625,-1.921875 0.726563,-0.570312 1.53125,-1.046875 2.40625,-1.421875 0.875,-0.382813 1.707031,-0.613281 2.5,-0.6875 0.070313,0 0.375,0 0.90625,0 0.539063,0 1.125,-0.0078 1.75,-0.03125 0.625,-0.01953 1.191406,-0.03125 1.703125,-0.03125 0.519531,0 0.816406,0 0.890625,0 1.289063,0 2.34375,0.320313 3.15625,0.953125 0.820313,0.625 1.46875,1.433594 1.9375,2.421875 0.476563,0.980469 0.820313,2.089844 1.03125,3.328125 0.207031,1.242188 0.351563,2.484375 0.4375,3.734375 0.03125,0.460937 0.04687,0.90625 0.04687,1.34375 0,0.4375 0,0.867187 0,1.28125 0,1.335937 -0.03125,2.632813 -0.09375,3.890625 -0.05469,1.25 -0.07813,2.5 -0.07813,3.75 0,0.53125 0.0078,1.046875 0.03125,1.546875 0.01953,0.492187 0.05078,0.984375 0.09375,1.484375 0.03125,0.417969 0.113281,0.808594 0.25,1.171875 0.132813,0.355469 0.203125,0.683594 0.203125,0.984375 -0.04297,0.34375 -0.179688,0.6875 -0.40625,1.03125 -0.230469,0.34375 -0.515625,0.652344 -0.859375,0.921875 -0.335937,0.261719 -0.714844,0.480469 -1.140625,0.65625 -0.417969,0.167969 -0.8125,0.25 -1.1875,0.25 -0.460938,0 -0.859375,-0.113281 -1.203125,-0.34375 -0.34375,-0.226563 -0.5625,-0.5625 -0.65625,-1 C 14.015625,-1.890625 13.96875,-2.375 13.96875,-2.90625 v -1.890625 c -0.03125,-1.9375 -0.08984,-3.898437 -0.171875,-5.890625 -0.07422,-2 -0.109375,-4.273438 -0.109375,-6.828125 0,-1.519531 -0.101562,-2.765625 -0.296875,-3.734375 -0.1875,-0.96875 -0.453125,-1.726562 -0.796875,-2.28125 -0.335938,-0.550781 -0.714844,-0.921875 -1.140625,-1.109375 -0.417969,-0.1875 -0.851563,-0.28125 -1.296875,-0.28125 -0.617188,0 -1.21875,0.08984 -1.8125,0.265625 -0.585938,0.167969 -1.085938,0.289062 -1.5,0.359375 z m 0,0"
           id="path228" />
      </g>
    </g>
  </g>
</svg>
