<?xml version="1.0" encoding="UTF-8" standalone="no"?>
<!-- Created with Inkscape (http://www.inkscape.org/) -->

<svg
   width="512"
   height="512"
   viewBox="0 0 135.46666 135.46667"
   version="1.1"
   id="svg1"
   xml:space="preserve"
   xmlns:inkscape="http://www.inkscape.org/namespaces/inkscape"
   xmlns:sodipodi="http://sodipodi.sourceforge.net/DTD/sodipodi-0.dtd"
   xmlns:xlink="http://www.w3.org/1999/xlink"
   xmlns="http://www.w3.org/2000/svg"
   xmlns:svg="http://www.w3.org/2000/svg"><sodipodi:namedview
     id="namedview1"
     pagecolor="#ffffff"
     bordercolor="#000000"
     borderopacity="0.25"
     inkscape:showpageshadow="2"
     inkscape:pageopacity="0.0"
     inkscape:pagecheckerboard="0"
     inkscape:deskcolor="#d1d1d1"
     inkscape:document-units="mm"><inkscape:page
       x="0"
       y="0"
       width="135.46666"
       height="135.46667"
       id="page2"
       margin="0"
       bleed="0" /></sodipodi:namedview><defs
     id="defs1"><linearGradient
       id="linearGradient2"
       inkscape:collect="always"
       inkscape:label="2"><stop
         style="stop-color:#ff430f;stop-opacity:1;"
         offset="0"
         id="stop2" /><stop
         style="stop-color:#ffb316;stop-opacity:1;"
         offset="0.53004003"
         id="stop6" /><stop
         style="stop-color:#ffe21e;stop-opacity:1;"
         offset="1"
         id="stop4" /></linearGradient><linearGradient
       inkscape:collect="always"
       xlink:href="#linearGradient2"
       id="linearGradient3"
       x1="66.771255"
       y1="65.159073"
       x2="66.771255"
       y2="96.95491"
       gradientUnits="userSpaceOnUse"
       gradientTransform="translate(0.91934333,-2.9006588)" /></defs><g
     inkscape:label="Layer 1"
     inkscape:groupmode="layer"
     id="layer1"><rect
       style="opacity:1;fill:#ffffff;fill-opacity:1;stroke:none;stroke-width:3.096;stroke-dasharray:none;stroke-dashoffset:22.4;stroke-opacity:1"
       id="rect6"
       width="135.46666"
       height="135.46666"
       x="0"
       y="0"
       ry="67.73333" /><path
       style="fill:url(#linearGradient3);fill-opacity:1;stroke:none;stroke-width:0.296;stroke-dashoffset:22.4"
       d="m 51.792685,48.420511 c 0,0 14.420082,6.627863 31.795836,0 v 45.85766 c 0,0 -0.716524,13.613989 -15.674003,13.613989 -14.957479,0 -16.032268,-13.613989 -16.032268,-13.613989 z"
       id="path1" /><path
       style="fill:#097aff;fill-opacity:1;stroke:none;stroke-width:0.296;stroke-dashoffset:22.4"
       d="m 83.631643,29.96893 c 0,0 0.633327,-3.166626 4.686609,-2.216639 4.053282,0.949989 11.083195,3.039962 15.389808,5.699929 0,0 2.65996,2.026642 1.01332,4.496612 0,0 -0.38,1.709978 -3.79995,1.139985 0,0 -5.509932,-3.166627 -16.149799,-5.826594 0,0 -1.773334,-0.929615 -1.139988,-3.293293 z"
       id="path2" /><path
       style="fill:#097aff;fill-opacity:1;stroke:none;stroke-width:0.296;stroke-dashoffset:22.4"
       d="m 51.835028,30.018473 c 0,0 -0.63333,-3.166626 -4.68661,-2.216639 -4.053283,0.949989 -11.083195,3.039962 -15.389815,5.699929 0,0 -2.65996,2.026642 -1.01332,4.496612 0,0 0.38,1.709978 3.79995,1.139985 0,0 5.509938,-3.166627 16.149805,-5.826594 0,0 1.77333,-0.929615 1.13999,-3.293293 z"
       id="path2-5" /></g></svg>
